<svg preserveAspectRatio="none" width="100%" height="100%" overflow="visible" style="display: block;" viewBox="0 0 22 22" fill="none" xmlns="http://www.w3.org/2000/svg">
<g id="lineicons:python">
<path id="Vector" d="M19.7725 8.64324C19.448 7.40116 18.8558 6.42491 17.6137 6.42491H15.9591V8.37741C15.9591 9.88533 14.6575 11.1567 13.2678 11.1567H8.85955C7.64772 11.1567 6.7008 12.1926 6.7008 13.4044V17.5752C6.7008 18.7275 7.73664 19.4379 8.85955 19.822C10.2208 20.2363 11.5509 20.3252 13.2366 19.822C14.3311 19.4966 15.3963 18.876 15.3963 17.5743V15.9179H11.0486V15.3862H17.6137C18.8558 15.3862 19.3591 14.4989 19.7725 13.1679C20.2161 11.7187 20.2161 10.3877 19.7725 8.64324ZM13.5025 16.9235C13.9471 16.9235 14.3311 17.3085 14.3311 17.7522C14.3311 18.1958 13.9461 18.5799 13.5034 18.5799C13.0597 18.6092 12.6747 18.1949 12.6747 17.7522C12.6454 17.3085 13.0295 16.9235 13.5034 16.9235M8.65422 10.5948H13.0313C14.2431 10.5948 15.1901 9.58924 15.1901 8.34716V4.23591C15.1901 3.08274 14.1845 2.19541 13.0304 1.98824C11.5821 1.78199 9.9843 1.78199 8.65422 1.98824C6.79064 2.31366 6.49455 2.99383 6.49455 4.23591V5.89233H10.8716V6.42399H4.8968C3.65472 6.42399 2.53089 7.22333 2.20547 8.64233C1.79114 10.2987 1.79114 11.3337 2.20547 13.0497C2.53089 14.3513 3.2413 15.268 4.54205 15.268H5.96197V13.2862C5.93172 11.8369 7.20405 10.5948 8.6533 10.5948M8.38747 4.76849C8.16924 4.76405 7.96118 4.67544 7.80675 4.52119C7.65233 4.36693 7.56349 4.15897 7.5588 3.94074C7.5588 3.49708 7.9438 3.11208 8.38655 3.11208C8.8293 3.11208 9.21522 3.49708 9.21522 3.94074C9.21522 4.38441 8.83114 4.76849 8.38747 4.76849Z" fill="var(--fill-0, #535353)"/>
</g>
</svg>
