<svg preserveAspectRatio="none" width="100%" height="100%" overflow="visible" style="display: block;" viewBox="0 0 22 22" fill="none" xmlns="http://www.w3.org/2000/svg">
<path id="Vector" d="M10.75 20.5C12.0304 20.5 13.2982 20.2478 14.4812 19.7578C15.6641 19.2678 16.7389 18.5497 17.6443 17.6443C18.5497 16.7389 19.2678 15.6641 19.7578 14.4812C20.2478 13.2982 20.5 12.0304 20.5 10.75C20.5 9.46961 20.2478 8.20176 19.7578 7.01884C19.2678 5.83591 18.5497 4.76108 17.6443 3.85571C16.7389 2.95034 15.6641 2.23216 14.4812 1.74217C13.2982 1.25219 12.0304 1 10.75 1M10.75 20.5C9.46961 20.5 8.20176 20.2478 7.01884 19.7578C5.83591 19.2678 4.76108 18.5497 3.85571 17.6443C2.95034 16.7389 2.23216 15.6641 1.74217 14.4812C1.25219 13.2982 1 12.0304 1 10.75C1 9.46961 1.25219 8.20176 1.74217 7.01884C2.23216 5.83591 2.95034 4.76108 3.85571 3.85571C4.76108 2.95034 5.83591 2.23216 7.01884 1.74217C8.20176 1.25219 9.46961 1 10.75 1M10.75 20.5C13.7411 20.5 15.0194 14.9068 15.0194 10.75C15.0194 6.59325 13.7411 1 10.75 1M10.75 20.5C7.75892 20.5 6.48058 14.9068 6.48058 10.75C6.48058 6.59325 7.75892 1 10.75 1M1.54167 7.5H19.9583M1.54167 14H19.9583" stroke="var(--stroke-0, white)" stroke-width="1.625" stroke-linecap="round" stroke-linejoin="round"/>
</svg>
