<svg preserveAspectRatio="none" width="100%" height="100%" overflow="visible" style="display: block;" viewBox="0 0 26 26" fill="none" xmlns="http://www.w3.org/2000/svg">
<path id="Vector" d="M13 25C14.5759 25 16.1363 24.6896 17.5922 24.0866C19.0481 23.4835 20.371 22.5996 21.4853 21.4853C22.5996 20.371 23.4835 19.0481 24.0866 17.5922C24.6896 16.1363 25 14.5759 25 13C25 11.4241 24.6896 9.86371 24.0866 8.4078C23.4835 6.95189 22.5996 5.62902 21.4853 4.51472C20.371 3.40042 19.0481 2.5165 17.5922 1.91345C16.1363 1.31039 14.5759 1 13 1M13 25C11.4241 25 9.86371 24.6896 8.4078 24.0866C6.95189 23.4835 5.62902 22.5996 4.51472 21.4853C3.40042 20.371 2.5165 19.0481 1.91345 17.5922C1.31039 16.1363 1 14.5759 1 13C1 11.4241 1.31039 9.86371 1.91345 8.4078C2.5165 6.95189 3.40042 5.62902 4.51472 4.51472C5.62902 3.40042 6.95189 2.5165 8.4078 1.91345C9.86371 1.31039 11.4241 1 13 1M13 25C16.6813 25 18.2547 18.116 18.2547 13C18.2547 7.884 16.6813 1 13 1M13 25C9.31867 25 7.74533 18.116 7.74533 13C7.74533 7.884 9.31867 1 13 1M1.66667 9H24.3333M1.66667 17H24.3333" stroke="var(--stroke-0, white)" stroke-width="1.625" stroke-linecap="round" stroke-linejoin="round"/>
</svg>
