<svg preserveAspectRatio="none" width="100%" height="100%" overflow="visible" style="display: block;" viewBox="0 0 22 27" fill="none" xmlns="http://www.w3.org/2000/svg">
<path id="Vector" d="M9.23333 17.5L7.36667 15.6333C7.23333 15.5 7.08889 15.4 6.93333 15.3333C6.77778 15.2667 6.61689 15.2333 6.45067 15.2333C6.28444 15.2333 6.11778 15.2667 5.95067 15.3333C5.78356 15.4 5.63333 15.5 5.5 15.6333C5.23333 15.9 5.1 16.2169 5.1 16.584C5.1 16.9511 5.23333 17.2676 5.5 17.5333L8.33333 20.4C8.46667 20.5333 8.61111 20.628 8.76667 20.684C8.92222 20.74 9.08889 20.7676 9.26667 20.7667C9.44444 20.7658 9.61111 20.7382 9.76667 20.684C9.92222 20.6298 10.0667 20.5351 10.2 20.4L15.8333 14.7667C16.1 14.5 16.2333 14.1778 16.2333 13.8C16.2333 13.4222 16.1 13.1 15.8333 12.8333C15.5667 12.5667 15.2444 12.4333 14.8667 12.4333C14.4889 12.4333 14.1667 12.5667 13.9 12.8333L9.23333 17.5ZM2.66667 26.6667C1.93333 26.6667 1.30578 26.4058 0.784 25.884C0.262222 25.3622 0.000888889 24.7342 0 24V2.66667C0 1.93333 0.261333 1.30578 0.784 0.784C1.30667 0.262222 1.93422 0.000888889 2.66667 0H12.2333C12.5889 0 12.928 0.0666668 13.2507 0.2C13.5733 0.333333 13.8564 0.522222 14.1 0.766667L20.5667 7.23333C20.8111 7.47778 21 7.76133 21.1333 8.084C21.2667 8.40667 21.3333 8.74533 21.3333 9.1V24C21.3333 24.7333 21.0724 25.3613 20.5507 25.884C20.0289 26.4067 19.4009 26.6676 18.6667 26.6667H2.66667ZM12 8V2.66667H2.66667V24H18.6667V9.33333H13.3333C12.9556 9.33333 12.6391 9.20533 12.384 8.94933C12.1289 8.69333 12.0009 8.37689 12 8Z" fill="var(--fill-0, white)"/>
</svg>
