<svg preserveAspectRatio="none" width="100%" height="100%" overflow="visible" style="display: block;" viewBox="0 0 26 26" fill="none" xmlns="http://www.w3.org/2000/svg">
<g id="mdi:docker">
<path id="Vector" d="M23.6275 11.1042C23.5625 11.0609 23.0208 10.6384 21.8508 10.6384C21.5475 10.6384 21.2442 10.6709 20.9408 10.725C20.7133 9.20835 19.4458 8.43919 19.3917 8.40669L19.0775 8.22252L18.8825 8.51502C18.6225 8.90502 18.4167 9.34919 18.33 9.80419C18.1133 10.6709 18.2433 11.4942 18.6875 12.1984C18.1567 12.5017 17.29 12.5775 17.1058 12.5775H2.83833C2.47 12.5775 2.16667 12.8809 2.16667 13.26C2.16667 14.5059 2.36167 15.7517 2.795 16.9217C3.2825 18.2109 4.01917 19.1642 4.96167 19.7492C6.02333 20.3992 7.7675 20.7675 9.75 20.7675C10.6058 20.7675 11.4942 20.6917 12.3717 20.5292C13.585 20.3125 14.755 19.89 15.8275 19.2725C16.7157 18.7646 17.5108 18.1088 18.1783 17.3334C19.3158 16.0659 19.9875 14.625 20.475 13.3792H20.6808C21.9158 13.3792 22.685 12.8809 23.1075 12.4584C23.3892 12.1984 23.595 11.8842 23.7467 11.5159L23.8333 11.2559L23.6275 11.1042ZM4.17083 12.1767H6.0775C6.16417 12.1767 6.25083 12.1009 6.25083 12.0034V10.2917C6.25083 10.205 6.175 10.1184 6.0775 10.1184H4.17083C4.07333 10.1184 3.9975 10.1942 3.9975 10.2917V12.0034C4.00833 12.1009 4.07333 12.1767 4.17083 12.1767ZM6.80333 12.1767H8.71C8.79667 12.1767 8.88333 12.1009 8.88333 12.0034V10.2917C8.88333 10.205 8.8075 10.1184 8.71 10.1184H6.80333C6.70583 10.1184 6.63 10.1942 6.63 10.2917V12.0034C6.64083 12.1009 6.70583 12.1767 6.80333 12.1767ZM9.47917 12.1767H11.375C11.4833 12.1767 11.5592 12.1009 11.5592 12.0034V10.2917C11.5592 10.205 11.4942 10.1184 11.375 10.1184H9.47917C9.3925 10.1184 9.31667 10.1942 9.31667 10.2917V12.0034C9.31667 12.1009 9.38167 12.1767 9.47917 12.1767ZM12.1225 12.1767H14.04C14.1267 12.1767 14.2025 12.1009 14.2025 12.0034V10.2917C14.2025 10.205 14.1375 10.1184 14.04 10.1184H12.1225C12.0358 10.1184 11.96 10.1942 11.96 10.2917V12.0034C11.96 12.1009 12.0358 12.1767 12.1225 12.1767ZM6.80333 9.75002H8.71C8.79667 9.75002 8.88333 9.65252 8.88333 9.55502V7.85419C8.88333 7.75669 8.8075 7.68085 8.71 7.68085H6.80333C6.70583 7.68085 6.63 7.74585 6.63 7.85419V9.55502C6.64083 9.65252 6.70583 9.75002 6.80333 9.75002ZM9.47917 9.75002H11.375C11.4833 9.75002 11.5592 9.65252 11.5592 9.55502V7.85419C11.5592 7.75669 11.4942 7.68085 11.375 7.68085H9.47917C9.3925 7.68085 9.31667 7.74585 9.31667 7.85419V9.55502C9.31667 9.65252 9.38167 9.75002 9.47917 9.75002ZM12.1225 9.75002H14.04C14.1267 9.75002 14.2025 9.65252 14.2025 9.55502V7.85419C14.2025 7.75669 14.1267 7.68085 14.04 7.68085H12.1225C12.0358 7.68085 11.96 7.74585 11.96 7.85419V9.55502C11.96 9.65252 12.0358 9.75002 12.1225 9.75002ZM12.1225 7.28002H14.04C14.1267 7.28002 14.2025 7.20419 14.2025 7.10669V5.41669C14.2025 5.30835 14.1267 5.23252 14.04 5.23252H12.1225C12.0358 5.23252 11.96 5.29752 11.96 5.41669V7.10669C11.96 7.19335 12.0358 7.28002 12.1225 7.28002ZM14.7875 12.1767H16.6942C16.7917 12.1767 16.8675 12.1009 16.8675 12.0034V10.2917C16.8675 10.205 16.7917 10.1184 16.6942 10.1184H14.7875C14.7008 10.1184 14.625 10.1942 14.625 10.2917V12.0034C14.625 12.1009 14.7008 12.1767 14.7875 12.1767Z" fill="var(--fill-0, #535353)"/>
</g>
</svg>
