<svg preserveAspectRatio="none" width="100%" height="100%" overflow="visible" style="display: block;" viewBox="0 0 45 45" fill="none" xmlns="http://www.w3.org/2000/svg">
<g id="Group 47270">
<path id="Vector 117" d="M36.3101 6.77569C22.2004 -2.21488 3.14074 5.68962 3.00087 21.6199C2.861 37.5501 19.6556 48.4122 36.3101 38.2746" stroke="var(--stroke-0, #0E9A8D)" stroke-width="4.34467" stroke-linecap="round"/>
<path id="Vector 118" d="M14.9488 15.1023C21.8279 7.49924 34.4001 11.7521 35.5856 21.4345C36.6721 30.3088 24.7243 37.5499 15.673 30.3088" stroke="var(--stroke-0, #0E9A8D)" stroke-width="4.34467" stroke-linecap="round"/>
<circle id="Ellipse 1402" cx="42.465" cy="33.5682" r="2.53439" fill="var(--fill-0, #0E9A8D)"/>
<circle id="Ellipse 1403" cx="42.465" cy="11.8449" r="2.53439" fill="var(--fill-0, #0E9A8D)"/>
<path id="Union" d="M23.6381 17.9998C26.0376 17.9998 27.9827 19.864 27.9827 22.1635C27.9827 24.463 26.0376 26.3271 23.6381 26.3271C21.5269 26.3271 19.7678 24.884 19.3754 22.971C18.8339 22.7892 17.6204 22.4166 16.759 22.4166C15.9632 22.4166 14.8671 22.7347 14.2777 22.9265C13.8478 23.658 13.0129 24.1548 12.0523 24.1548C10.6526 24.1548 9.51789 23.1011 9.51789 21.8014C9.51789 20.5017 10.6526 19.4481 12.0523 19.4481C13.1891 19.4481 14.1509 20.1432 14.4721 21.1006C15.0867 21.2918 16.0441 21.5483 16.759 21.5483C17.6807 21.5483 19.0052 21.1209 19.4787 20.9578C20.0182 19.2462 21.6761 17.9998 23.6381 17.9998Z" fill="var(--fill-0, #0E9A8D)"/>
</g>
</svg>
