<svg preserveAspectRatio="none" width="100%" height="100%" overflow="visible" style="display: block;" viewBox="0 0 29 29" fill="none" xmlns="http://www.w3.org/2000/svg">
<g id="Group">
<path id="Vector" d="M9 18.8667V9.8C9 9.58783 9.08428 9.38434 9.23431 9.23431C9.38434 9.08428 9.58783 9 9.8 9H18.8667C19.0788 9 19.2823 9.08428 19.4324 9.23431C19.5824 9.38434 19.6667 9.58783 19.6667 9.8V18.8667C19.6667 19.0788 19.5824 19.2823 19.4324 19.4324C19.2823 19.5824 19.0788 19.6667 18.8667 19.6667H9.8C9.58783 19.6667 9.38434 19.5824 9.23431 19.4324C9.08428 19.2823 9 19.0788 9 18.8667Z" stroke="var(--stroke-0, white)" stroke-width="2" stroke-linecap="round" stroke-linejoin="round"/>
<path id="Vector_2" d="M21 3.66667V1M14.3333 3.66667V1M7.66667 3.66667V1M7.66667 25V27.6667M14.3333 25V27.6667M21 25V27.6667M25 21H27.6667M25 14.3333H27.6667M25 7.66667H27.6667M3.66667 21H1M3.66667 14.3333H1M3.66667 7.66667H1M25 4.46667V24.2C25 24.4122 24.9157 24.6157 24.7657 24.7657C24.6157 24.9157 24.4122 25 24.2 25H4.46667C4.25449 25 4.05101 24.9157 3.90098 24.7657C3.75095 24.6157 3.66667 24.4122 3.66667 24.2V4.46667C3.66667 4.25449 3.75095 4.05101 3.90098 3.90098C4.05101 3.75095 4.25449 3.66667 4.46667 3.66667H24.2C24.4122 3.66667 24.6157 3.75095 24.7657 3.90098C24.9157 4.05101 25 4.25449 25 4.46667Z" stroke="var(--stroke-0, white)" stroke-width="2" stroke-linecap="round" stroke-linejoin="round"/>
</g>
</svg>
