<svg preserveAspectRatio="none" width="100%" height="100%" overflow="visible" style="display: block;" viewBox="0 0 20 20" fill="none" xmlns="http://www.w3.org/2000/svg">
<g id="mynaui:send">
<path id="Vector" d="M11.6667 8.33352L9.16665 10.8335M16.9067 2.52602C16.9857 2.49873 17.0709 2.49424 17.1524 2.51306C17.2339 2.53188 17.3085 2.57325 17.3676 2.63244C17.4267 2.69163 17.4679 2.76626 17.4866 2.8478C17.5053 2.92933 17.5007 3.01448 17.4733 3.09352L12.5367 17.2018C12.5071 17.2862 12.4529 17.3597 12.3811 17.4129C12.3092 17.466 12.2231 17.4963 12.1338 17.4999C12.0445 17.5035 11.9562 17.4802 11.8803 17.433C11.8045 17.3858 11.7445 17.3169 11.7083 17.2352L9.02582 11.2002C8.98069 11.0998 8.90035 11.0195 8.79999 10.9743L2.76499 8.29102C2.68357 8.25466 2.61492 8.19473 2.56791 8.11896C2.5209 8.04319 2.49769 7.95507 2.50128 7.86597C2.50487 7.77688 2.53509 7.6909 2.58804 7.61916C2.64099 7.54742 2.71424 7.4932 2.79832 7.46352L16.9067 2.52602Z" stroke="var(--stroke-0, white)" stroke-width="1.5" stroke-linecap="round" stroke-linejoin="round"/>
</g>
</svg>
