<svg preserveAspectRatio="none" width="100%" height="100%" overflow="visible" style="display: block;" viewBox="0 0 32 32" fill="none" xmlns="http://www.w3.org/2000/svg">
<path id="Vector" d="M24 8V4L16 0L8 4V6L0 10V20L24 32L32 28V12L24 8ZM8 21.76L2 18.76V12.16L8 15.22V21.76ZM8 12.98L3.32 10.58L8 8.24V12.98ZM16 25.76L10 22.76V6.14L16 9.22V25.76ZM11.32 4.58L16 2.24L20.68 4.58L16 6.98L11.32 4.58ZM24 29.76L18 26.76V14.14L24 17.22V29.76ZM24 14.98L19.32 12.58L24 10.24L28.68 12.58L24 14.98Z" fill="var(--fill-0, white)"/>
</svg>
