<svg preserveAspectRatio="none" width="100%" height="100%" overflow="visible" style="display: block;" viewBox="0 0 15 15" fill="none" xmlns="http://www.w3.org/2000/svg">
<g id="ic:baseline-phone">
<path id="Vector" d="M4.06025 6.61796C4.94345 8.35369 6.36639 9.77049 8.10212 10.6598L9.45145 9.31049C9.61705 9.14489 9.86239 9.08969 10.0771 9.16329C10.764 9.39022 11.5061 9.51289 12.2667 9.51289C12.604 9.51289 12.88 9.78889 12.88 10.1262V12.2668C12.88 12.6041 12.604 12.8801 12.2667 12.8801C6.50745 12.8801 1.83999 8.21262 1.83999 2.45342C1.83999 2.11609 2.11599 1.84009 2.45332 1.84009H4.59999C4.93732 1.84009 5.21332 2.11609 5.21332 2.45342C5.21332 3.22009 5.33599 3.95609 5.56292 4.64302C5.63039 4.85769 5.58132 5.09689 5.40959 5.26862L4.06025 6.61796Z" fill="var(--fill-0, black)"/>
</g>
</svg>
