<svg preserveAspectRatio="none" width="100%" height="100%" overflow="visible" style="display: block;" viewBox="0 0 13 11" fill="none" xmlns="http://www.w3.org/2000/svg">
<g id="Group">
<path id="Vector" d="M1 2.22667C1 1.90133 1.12924 1.58933 1.35928 1.35928C1.58933 1.12924 1.90133 1 2.22667 1H10.8133C11.1387 1 11.4507 1.12924 11.6807 1.35928C11.9108 1.58933 12.04 1.90133 12.04 2.22667V8.36C12.04 8.68533 11.9108 8.99734 11.6807 9.22738C11.4507 9.45743 11.1387 9.58667 10.8133 9.58667H2.22667C1.90133 9.58667 1.58933 9.45743 1.35928 9.22738C1.12924 8.99734 1 8.68533 1 8.36V2.22667Z" stroke="var(--stroke-0, black)" stroke-width="1.22667" stroke-linecap="round" stroke-linejoin="round"/>
<path id="Vector_2" d="M1.00001 2.22654L6.52001 5.90654L12.04 2.22654" stroke="var(--stroke-0, black)" stroke-width="1.22667" stroke-linecap="round" stroke-linejoin="round"/>
</g>
</svg>
