<svg preserveAspectRatio="none" width="100%" height="100%" overflow="visible" style="display: block;" viewBox="0 0 27 27" fill="none" xmlns="http://www.w3.org/2000/svg">
<g id="Group">
<path id="Vector" d="M13.6664 20.6668V5.50009M13.6664 5.50009C13.6664 4.96322 13.7899 4.43354 14.0273 3.95203C14.2648 3.47052 14.6098 3.05008 15.0357 2.72325C15.4616 2.39641 15.957 2.17194 16.4836 2.0672C17.0102 1.96245 17.5537 1.98025 18.0723 2.1192C18.5909 2.25816 19.0706 2.51455 19.4742 2.86853C19.8778 3.22252 20.1946 3.66463 20.4001 4.16063C20.6055 4.65664 20.6941 5.19327 20.6589 5.72899C20.6238 6.26471 20.4659 6.78516 20.1974 7.25009M13.6664 5.50009C13.6665 4.96322 13.543 4.43354 13.3055 3.95203C13.0681 3.47052 12.7231 3.05008 12.2972 2.72325C11.8712 2.39641 11.3758 2.17194 10.8493 2.0672C10.3227 1.96245 9.77914 1.98025 9.26056 2.1192C8.74199 2.25816 8.26233 2.51455 7.85869 2.86853C7.45506 3.22252 7.13827 3.66463 6.93283 4.16063C6.72739 4.65664 6.63881 5.19327 6.67395 5.72899C6.70908 6.26471 6.86698 6.78516 7.13544 7.25009M17.1664 14.8334C16.157 14.5384 15.2704 13.9242 14.6394 13.0828C14.0085 12.2415 13.6671 11.2184 13.6664 10.1668C13.6658 11.2184 13.3244 12.2415 12.6934 13.0828C12.0625 13.9242 11.1758 14.5384 10.1664 14.8334" stroke="var(--stroke-0, white)" stroke-width="2.33333" stroke-linecap="round" stroke-linejoin="round"/>
<path id="Vector_2" d="M20.663 5.64591C21.3487 5.82224 21.9854 6.15231 22.5247 6.61111C23.064 7.06992 23.4918 7.64543 23.7758 8.29407C24.0598 8.94271 24.1924 9.64746 24.1637 10.3549C24.1349 11.0624 23.9456 11.7541 23.61 12.3776" stroke="var(--stroke-0, white)" stroke-width="2.33333" stroke-linecap="round" stroke-linejoin="round"/>
<path id="Vector_3" d="M20.6664 20.6668C21.6937 20.6667 22.6922 20.3277 23.5072 19.7024C24.3222 19.077 24.908 18.2002 25.1739 17.2079C25.4398 16.2157 25.3708 15.1634 24.9777 14.2144C24.5846 13.2653 23.8894 12.4724 22.9998 11.9588" stroke="var(--stroke-0, white)" stroke-width="2.33333" stroke-linecap="round" stroke-linejoin="round"/>
<path id="Vector_4" d="M22.9613 20.0636C23.043 20.6962 22.9942 21.3389 22.8179 21.9519C22.6416 22.5649 22.3414 23.1353 21.936 23.6277C21.5306 24.1202 21.0286 24.5243 20.4609 24.8152C19.8931 25.106 19.2718 25.2774 18.6353 25.3187C17.9988 25.36 17.3605 25.2704 16.76 25.0553C16.1595 24.8403 15.6094 24.5045 15.1437 24.0685C14.6781 23.6326 14.3067 23.1058 14.0526 22.5207C13.7986 21.9356 13.6671 21.3047 13.6664 20.6668C13.6658 21.3047 13.5343 21.9356 13.2802 22.5207C13.0261 23.1058 12.6548 23.6326 12.1892 24.0685C11.7235 24.5045 11.1734 24.8403 10.5729 25.0553C9.97235 25.2704 9.33411 25.36 8.69758 25.3187C8.06105 25.2774 7.43974 25.106 6.87203 24.8152C6.30432 24.5243 5.80226 24.1202 5.39686 23.6277C4.99145 23.1353 4.69131 22.5649 4.51498 21.9519C4.33864 21.3389 4.28984 20.6962 4.37161 20.0636" stroke="var(--stroke-0, white)" stroke-width="2.33333" stroke-linecap="round" stroke-linejoin="round"/>
<path id="Vector_5" d="M6.66645 20.6668C5.6392 20.6667 4.64066 20.3277 3.8257 19.7024C3.01073 19.077 2.42488 18.2002 2.15901 17.2079C1.89313 16.2157 1.96208 15.1634 2.35517 14.2144C2.74826 13.2653 3.44352 12.4724 4.33312 11.9588" stroke="var(--stroke-0, white)" stroke-width="2.33333" stroke-linecap="round" stroke-linejoin="round"/>
<path id="Vector_6" d="M6.66993 5.64591C5.98417 5.82224 5.34752 6.15231 4.8082 6.61111C4.26889 7.06992 3.84104 7.64543 3.55708 8.29407C3.27312 8.94271 3.14049 9.64746 3.16922 10.3549C3.19795 11.0624 3.3873 11.7541 3.72293 12.3776" stroke="var(--stroke-0, white)" stroke-width="2.33333" stroke-linecap="round" stroke-linejoin="round"/>
</g>
</svg>
