<svg preserveAspectRatio="none" width="100%" height="100%" overflow="visible" style="display: block;" viewBox="0 0 18 20" fill="none" xmlns="http://www.w3.org/2000/svg">
<g id="Group">
<g id="Vector">
</g>
<path id="Vector_2" d="M4.52181 0.296853C5.19799 0.525033 5.84106 0.841573 6.43431 1.23825C7.27267 1.02367 8.13482 0.916014 9.00021 0.917854C9.89391 0.917854 10.7561 1.02945 11.5643 1.23735C12.1573 0.841058 12.8001 0.524824 13.4759 0.296853C14.1032 0.0835535 14.9969 -0.262046 15.5279 0.325654C15.8879 0.725254 15.9779 1.39485 16.0418 1.90605C16.1138 2.47665 16.1309 3.22005 15.9419 3.95805C16.6646 4.89135 17.1002 6.00465 17.1002 7.21785C17.1002 9.05565 16.1048 10.6514 14.6315 11.7566C13.9221 12.2812 13.1358 12.6929 12.3005 12.977C12.4931 13.418 12.6002 13.9058 12.6002 14.4179V17.1179C12.6002 17.3565 12.5054 17.5855 12.3366 17.7542C12.1678 17.923 11.9389 18.0179 11.7002 18.0179H6.30021C6.06151 18.0179 5.83259 17.923 5.66381 17.7542C5.49503 17.5855 5.40021 17.3565 5.40021 17.1179V16.226C4.54071 16.3313 3.81981 16.2377 3.20691 15.9776C2.56611 15.7058 2.11971 15.2846 1.78401 14.8814C1.46541 14.4998 1.11801 13.6394 0.615806 13.472C0.503644 13.4346 0.399937 13.3755 0.310605 13.2981C0.221273 13.2207 0.148067 13.1264 0.0951653 13.0207C-0.0116741 12.8072 -0.0293211 12.56 0.0461064 12.3335C0.121534 12.1069 0.283857 11.9197 0.497368 11.8128C0.710878 11.706 0.958085 11.6883 1.18461 11.7638C1.78401 11.9636 2.17461 12.3956 2.44191 12.743C2.87391 13.301 3.22491 14.03 3.90891 14.3207C4.19061 14.4404 4.60371 14.5187 5.24991 14.4305L5.40021 14.3999C5.40228 13.9101 5.50426 13.4259 5.69991 12.977C4.86459 12.6929 4.07828 12.2812 3.36891 11.7566C1.89561 10.6514 0.900206 9.05655 0.900206 7.21785C0.900206 6.00645 1.33491 4.89405 2.05581 3.96165C1.86681 3.22365 1.88301 2.47845 1.95501 1.90695L1.95951 1.87275C2.02521 1.34895 2.10171 0.732454 2.46891 0.325654C2.99991 -0.262046 3.89451 0.0844536 4.52091 0.297754L4.52181 0.296853Z" fill="var(--fill-0, white)"/>
</g>
</svg>
