<svg preserveAspectRatio="none" width="100%" height="100%" overflow="visible" style="display: block;" viewBox="0 0 30 30" fill="none" xmlns="http://www.w3.org/2000/svg">
<g id="Group">
<path id="Vector" d="M15.3331 23.3334V6.00011M15.3331 6.00011C15.3331 5.38654 15.4742 4.78119 15.7455 4.23089C16.0169 3.68059 16.4112 3.20009 16.898 2.82657C17.3847 2.45304 17.9509 2.1965 18.5527 2.0768C19.1545 1.95709 19.7757 1.97743 20.3684 2.13623C20.961 2.29504 21.5092 2.58805 21.9705 2.99261C22.4318 3.39717 22.7939 3.90243 23.0286 4.4693C23.2634 5.03616 23.3647 5.64945 23.3245 6.2617C23.2843 6.87395 23.1039 7.46876 22.7971 8.00011M15.3331 6.00011C15.3331 5.38654 15.192 4.78119 14.9206 4.23089C14.6493 3.68059 14.255 3.20009 13.7682 2.82657C13.2814 2.45304 12.7152 2.1965 12.1135 2.0768C11.5117 1.95709 10.8904 1.97743 10.2978 2.13623C9.70513 2.29504 9.15695 2.58805 8.69565 2.99261C8.23435 3.39717 7.8723 3.90243 7.63752 4.4693C7.40273 5.03616 7.3015 5.64945 7.34165 6.2617C7.38181 6.87395 7.56227 7.46876 7.86908 8.00011M19.3331 16.6668C18.1795 16.3296 17.1662 15.6276 16.4451 14.6661C15.724 13.7046 15.3338 12.5353 15.3331 11.3334C15.3324 12.5353 14.9422 13.7046 14.2211 14.6661C13.5 15.6276 12.4867 16.3296 11.3331 16.6668" stroke="var(--stroke-0, white)" stroke-width="2.33333" stroke-linecap="round" stroke-linejoin="round"/>
<path id="Vector_2" d="M23.3291 6.16676C24.1128 6.36828 24.8404 6.74549 25.4568 7.26984C26.0731 7.79419 26.5621 8.45192 26.8866 9.19322C27.2112 9.93452 27.3627 10.74 27.3299 11.5485C27.2971 12.3571 27.0807 13.1476 26.6971 13.8601" stroke="var(--stroke-0, white)" stroke-width="2.33333" stroke-linecap="round" stroke-linejoin="round"/>
<path id="Vector_3" d="M23.3331 23.3334C24.5071 23.3334 25.6483 22.946 26.5797 22.2313C27.511 21.5166 28.1806 20.5145 28.4844 19.3805C28.7883 18.2465 28.7095 17.0439 28.2603 15.9593C27.811 14.8746 27.0164 13.9685 25.9997 13.3814" stroke="var(--stroke-0, white)" stroke-width="2.33333" stroke-linecap="round" stroke-linejoin="round"/>
<path id="Vector_4" d="M25.9557 22.6441C26.0492 23.3671 25.9934 24.1016 25.7919 24.8022C25.5904 25.5028 25.2473 26.1546 24.784 26.7174C24.3207 27.2802 23.7469 27.7421 23.0981 28.0745C22.4493 28.4069 21.7392 28.6027 21.0118 28.6499C20.2843 28.6971 19.5549 28.5947 18.8686 28.349C18.1822 28.1032 17.5536 27.7194 17.0214 27.2212C16.4892 26.7229 16.0648 26.1209 15.7745 25.4522C15.4841 24.7836 15.3339 24.0625 15.3331 23.3335C15.3323 24.0625 15.1821 24.7836 14.8917 25.4522C14.6013 26.1209 14.1769 26.7229 13.6448 27.2212C13.1126 27.7194 12.4839 28.1032 11.7976 28.349C11.1113 28.5947 10.3818 28.6971 9.65438 28.6499C8.92691 28.6027 8.21685 28.4069 7.56803 28.0745C6.91922 27.7421 6.34544 27.2802 5.88212 26.7174C5.4188 26.1546 5.07579 25.5028 4.87426 24.8022C4.67273 24.1016 4.61696 23.3671 4.71041 22.6441" stroke="var(--stroke-0, white)" stroke-width="2.33333" stroke-linecap="round" stroke-linejoin="round"/>
<path id="Vector_5" d="M7.33309 23.3334C6.15908 23.3334 5.0179 22.946 4.08651 22.2313C3.15512 21.5166 2.48558 20.5145 2.18172 19.3805C1.87787 18.2465 1.95667 17.0439 2.40591 15.9593C2.85515 14.8746 3.64973 13.9685 4.66642 13.3814" stroke="var(--stroke-0, white)" stroke-width="2.33333" stroke-linecap="round" stroke-linejoin="round"/>
<path id="Vector_6" d="M7.33707 6.16676C6.55333 6.36828 5.82573 6.74549 5.20937 7.26984C4.59301 7.79419 4.10405 8.45192 3.77952 9.19322C3.455 9.93452 3.30341 10.74 3.33625 11.5485C3.36909 12.3571 3.58549 13.1476 3.96907 13.8601" stroke="var(--stroke-0, white)" stroke-width="2.33333" stroke-linecap="round" stroke-linejoin="round"/>
</g>
</svg>
