<svg preserveAspectRatio="none" width="100%" height="100%" overflow="visible" style="display: block;" viewBox="0 0 12 14" fill="none" xmlns="http://www.w3.org/2000/svg">
<g id="Group">
<g id="Vector">
</g>
<path id="Vector_2" fill-rule="evenodd" clip-rule="evenodd" d="M5.52 0C6.984 0 8.38803 0.58157 9.42323 1.61677C10.4584 2.65197 11.04 4.05601 11.04 5.52C11.04 7.40539 10.0121 8.94853 8.92891 10.0556C8.38775 10.6027 7.79726 11.0988 7.16496 11.5374L6.90368 11.7153L6.78101 11.7969L6.54979 11.9441L6.34371 12.0698L6.08856 12.2182C5.91538 12.3171 5.71941 12.3691 5.52 12.3691C5.32059 12.3691 5.12462 12.3171 4.95144 12.2182L4.69629 12.0698L4.37736 11.8735L4.2596 11.7969L4.00813 11.6294C3.326 11.1679 2.69063 10.6408 2.11109 10.0556C1.02795 8.94792 0 7.40539 0 5.52C0 4.05601 0.58157 2.65197 1.61677 1.61677C2.65197 0.58157 4.05601 0 5.52 0ZM5.52 1.22667C4.38134 1.22667 3.28931 1.679 2.48416 2.48415C1.679 3.28931 1.22667 4.38134 1.22667 5.52C1.22667 6.94416 2.00683 8.19413 2.98755 9.19755C3.40923 9.62442 3.86502 10.0162 4.35037 10.369L4.63128 10.569C4.72205 10.6323 4.80935 10.6912 4.89317 10.7456L5.13237 10.8989L5.34275 11.0271L5.52 11.1308L5.79907 10.9658L6.02416 10.8247C6.14396 10.7487 6.27215 10.6634 6.40872 10.569L6.68963 10.369C7.17498 10.0162 7.63077 9.62442 8.05245 9.19755C9.03317 8.19475 9.81333 6.94416 9.81333 5.52C9.81333 4.38134 9.361 3.28931 8.55585 2.48415C7.75069 1.679 6.65866 1.22667 5.52 1.22667ZM5.52 3.06667C6.17067 3.06667 6.79468 3.32514 7.25477 3.78523C7.71486 4.24532 7.97333 4.86934 7.97333 5.52C7.97333 6.17066 7.71486 6.79468 7.25477 7.25477C6.79468 7.71486 6.17067 7.97333 5.52 7.97333C4.86934 7.97333 4.24532 7.71486 3.78523 7.25477C3.32514 6.79468 3.06667 6.17066 3.06667 5.52C3.06667 4.86934 3.32514 4.24532 3.78523 3.78523C4.24532 3.32514 4.86934 3.06667 5.52 3.06667ZM5.52 4.29333C5.19467 4.29333 4.88266 4.42257 4.65262 4.65262C4.42257 4.88266 4.29333 5.19467 4.29333 5.52C4.29333 5.84533 4.42257 6.15734 4.65262 6.38738C4.88266 6.61743 5.19467 6.74667 5.52 6.74667C5.84533 6.74667 6.15734 6.61743 6.38738 6.38738C6.61743 6.15734 6.74667 5.84533 6.74667 5.52C6.74667 5.19467 6.61743 4.88266 6.38738 4.65262C6.15734 4.42257 5.84533 4.29333 5.52 4.29333Z" fill="var(--fill-0, black)"/>
</g>
</svg>
