<svg preserveAspectRatio="none" width="100%" height="100%" overflow="visible" style="display: block;" viewBox="0 0 22 22" fill="none" xmlns="http://www.w3.org/2000/svg">
<g id="material-icon-theme:react">
<path id="Vector" d="M11 8.25C16.1177 8.25 19.25 10.0306 19.25 11C19.25 11.9694 16.1177 13.75 11 13.75C5.88225 13.75 2.75 11.9694 2.75 11C2.75 10.0306 5.88225 8.25 11 8.25ZM11 6.875C5.68425 6.875 1.375 8.72163 1.375 11C1.375 13.2784 5.68425 15.125 11 15.125C16.3157 15.125 20.625 13.2784 20.625 11C20.625 8.72163 16.3157 6.875 11 6.875Z" fill="var(--fill-0, #535353)"/>
<path id="Vector_2" d="M11 9.625C10.7281 9.625 10.4622 9.70564 10.2361 9.85673C10.01 10.0078 9.83374 10.2226 9.72967 10.4738C9.6256 10.7251 9.59837 11.0015 9.65142 11.2682C9.70448 11.535 9.83543 11.78 10.0277 11.9723C10.22 12.1646 10.465 12.2955 10.7318 12.3486C10.9985 12.4016 11.2749 12.3744 11.5262 12.2703C11.7774 12.1663 11.9922 11.99 12.1433 11.7639C12.2944 11.5378 12.375 11.2719 12.375 11C12.375 10.6353 12.2301 10.2856 11.9723 10.0277C11.7144 9.76987 11.3647 9.625 11 9.625Z" fill="var(--fill-0, #535353)"/>
<path id="Vector_3" d="M7.18987 3.78608C8.57656 3.78608 11.2716 5.97027 13.3815 9.62502C15.9404 14.0573 15.9644 17.6598 15.125 18.1445C15.0282 18.1947 14.9198 18.2185 14.8108 18.2133C13.4241 18.2133 10.7284 16.0298 8.61849 12.375C6.05962 7.94271 6.03556 4.34021 6.87499 3.85552C6.97203 3.80519 7.08068 3.78078 7.18987 3.78608ZM7.18918 2.41177C6.8388 2.40543 6.49306 2.49252 6.18749 2.66408C4.21437 3.80327 4.76987 8.45902 7.42774 13.0625C9.68549 16.9744 12.7352 19.589 14.8115 19.589C15.1618 19.5948 15.5073 19.5072 15.8125 19.3353C17.7856 18.1968 17.2301 13.541 14.5722 8.93752C12.3145 5.02565 9.26474 2.41108 7.18849 2.41108L7.18918 2.41177Z" fill="var(--fill-0, #535353)"/>
<path id="Vector_4" d="M14.8108 3.7861C14.9198 3.78092 15.0282 3.80464 15.125 3.85485C15.9644 4.34022 15.9404 7.94272 13.3815 12.375C11.2709 16.0298 8.57586 18.214 7.18918 18.214C7.08022 18.2192 6.97183 18.1954 6.87499 18.1452C6.03555 17.6592 6.05961 14.0567 8.61849 9.62503C10.7291 5.97028 13.4241 3.7861 14.8108 3.7861ZM14.8108 2.4111C12.7346 2.4111 9.68549 5.02635 7.42705 8.93753C4.77055 13.541 4.21436 18.1968 6.18749 19.3353C6.49292 19.5073 6.83867 19.5949 7.18918 19.589C9.26543 19.589 12.3145 16.9737 14.5729 13.0625C17.2294 8.45903 17.7856 3.80328 15.8125 2.66478C15.5071 2.49274 15.1613 2.40518 14.8108 2.4111Z" fill="var(--fill-0, #535353)"/>
</g>
</svg>
