<svg preserveAspectRatio="none" width="100%" height="100%" overflow="visible" style="display: block;" viewBox="0 0 563 412" fill="none" xmlns="http://www.w3.org/2000/svg">
<g id="Mask Group" opacity="0.6">
<mask id="mask0_287_4234" style="mask-type:alpha" maskUnits="userSpaceOnUse" x="-1" y="-1" width="564" height="413">
<path id="Vector 114" d="M65.4605 59.8057C175.8 51.5909 538.628 5.02557 562.092 0L498.101 277.076L366.339 342.909L111.767 335.547L4.34335 410.795L0 169.395L65.4605 59.8057Z" fill="url(#paint0_linear_287_4234)" stroke="url(#paint1_linear_287_4234)" stroke-opacity="0.9" stroke-width="0.668873"/>
</mask>
<g mask="url(#mask0_287_4234)">
<g id="Group 46880">
<g id="Vector 103">
<path d="M55.4106 203.764C84.3413 136.377 135.99 141.993 200.774 141.291C206.809 147.959 220.085 188.743 224.912 298.528C230.947 435.76 123.744 537.192 115.934 509.815C108.125 482.439 26.4799 271.152 55.4106 203.764Z" fill="var(--fill-0, black)"/>
<path d="M200.648 141.565C202.106 143.232 204.024 146.962 206.153 153.321C208.317 159.782 210.69 168.924 213.027 181.292C217.701 206.027 222.226 243.656 224.639 298.54C227.654 367.082 202.388 426.691 175.39 465.745C161.891 485.273 147.968 499.647 136.948 507.426C131.432 511.32 126.673 513.54 123.075 513.954C121.281 514.16 119.798 513.914 118.652 513.227C117.51 512.542 116.67 511.399 116.197 509.741C114.242 502.889 107.67 484.534 99.3738 459.835C91.0742 435.127 81.0416 404.048 72.158 371.721C63.2741 339.393 55.5412 305.824 51.8357 276.13C48.1285 246.423 48.4605 220.647 55.6619 203.873C70.0967 170.25 90.1799 154.866 114.723 147.783C139.271 140.698 168.281 141.912 200.648 141.565Z" stroke="url(#paint2_linear_287_4234)" stroke-opacity="0.9" stroke-width="0.546679"/>
</g>
<g id="Vector 107" filter="url(#filter0_f_287_4234)">
<path d="M59.9453 210.409C91.9936 138.125 169.476 142.043 241.24 141.29C313.479 147.607 249.381 231.655 254.729 349.418C261.414 496.622 132.802 556.834 124.151 527.469C115.5 498.103 27.897 282.693 59.9453 210.409Z" fill="var(--fill-0, black)"/>
<path d="M241.228 141.563C250.227 142.351 257.078 144.347 262.199 147.45C267.317 150.55 270.722 154.765 272.817 160.016C277.018 170.543 275.964 185.249 272.8 203.515C266.48 240.002 251.781 290.51 254.457 349.431C257.795 422.944 227.351 474.722 195.007 504.456C178.831 519.325 162.188 528.674 149.068 532.475C142.505 534.376 136.846 534.883 132.574 534.019C128.313 533.157 125.459 530.94 124.414 527.392C122.249 520.042 115.144 501.054 106.22 475.614C97.2927 450.162 86.5345 418.23 77.0486 384.958C67.5623 351.685 59.3502 317.079 55.5115 286.281C51.6713 255.47 52.2154 228.518 60.1951 210.52C76.1774 174.472 103.48 157.425 135.766 149.291C168.069 141.152 205.333 141.939 241.228 141.563Z" stroke="url(#paint3_linear_287_4234)" stroke-opacity="0.9" stroke-width="0.546679"/>
</g>
<g id="Vector 108" filter="url(#filter1_f_287_4234)">
<path d="M60.2119 232.3C93.4861 156.845 160.222 132.207 234.732 131.421C241.673 138.887 249.61 215.48 255.162 338.408C262.103 492.068 138.804 605.643 129.822 574.99C120.84 544.336 26.9377 307.755 60.2119 232.3Z" fill="var(--fill-0, black)"/>
<path d="M234.609 131.695C234.989 132.133 235.387 132.808 235.795 133.735C236.229 134.722 236.669 135.975 237.113 137.493C238.001 140.528 238.9 144.602 239.802 149.673C241.607 159.815 243.423 173.922 245.196 191.643C248.741 227.084 252.113 276.959 254.889 338.421C258.356 415.175 229.294 481.925 198.24 525.658C182.712 547.526 166.697 563.624 154.017 572.338C147.672 576.699 142.191 579.191 138.042 579.656C135.971 579.888 134.253 579.612 132.924 578.837C131.601 578.063 130.63 576.774 130.085 574.913C127.837 567.241 120.278 546.69 110.736 519.034C101.19 491.367 89.6517 456.568 79.4342 420.371C69.2164 384.172 60.3213 346.583 56.0592 313.333C51.7953 280.068 52.1756 251.199 60.4616 232.41C93.6572 157.134 160.209 132.507 234.609 131.695Z" stroke="url(#paint4_linear_287_4234)" stroke-opacity="0.9" stroke-width="0.546679"/>
</g>
<g id="Vector 109" filter="url(#filter2_f_287_4234)">
<path d="M62.6917 219.585C100.928 135.887 169.19 142.862 254.811 141.99C262.786 150.273 309.943 130.931 316.323 267.289C324.299 437.735 153.004 633.714 142.683 599.712C132.361 565.709 24.4556 303.283 62.6917 219.585Z" fill="var(--fill-0, black)"/>
<path d="M254.701 142.265C255.761 143.307 257.404 143.908 259.414 144.424C260.453 144.691 261.605 144.939 262.844 145.211C264.084 145.484 265.416 145.783 266.82 146.152C272.433 147.626 279.227 150.228 285.975 156.807C299.48 169.975 312.86 199.138 316.05 267.302C320.034 352.441 279.24 443.988 236.136 510.019C214.586 543.031 192.469 569.649 175.104 585.885C166.416 594.007 158.937 599.512 153.326 601.93C150.517 603.14 148.216 603.56 146.479 603.187C144.771 602.82 143.565 601.678 142.944 599.632C140.361 591.123 131.675 568.329 120.71 537.651C109.741 506.961 96.4817 468.359 84.7403 428.207C72.9985 388.054 62.7768 346.356 57.8789 309.472C52.9792 272.574 53.4161 240.547 62.9405 219.698C82.0248 177.924 108.585 158.799 141.054 149.992C173.529 141.184 211.91 142.697 254.701 142.265Z" stroke="url(#paint5_linear_287_4234)" stroke-opacity="0.9" stroke-width="0.546679"/>
</g>
<g id="Vector 110" filter="url(#filter3_f_287_4234)">
<path d="M74.1836 241.168C117.382 143.267 202.882 143.694 299.614 142.674C308.625 152.362 328.448 227.076 335.657 386.572C344.668 585.943 184.596 733.304 172.935 693.532C161.274 653.76 30.9855 339.068 74.1836 241.168Z" fill="var(--fill-0, black)"/>
<path d="M299.492 142.948C300.567 144.143 301.822 146.305 303.204 149.502C304.617 152.77 306.154 157.096 307.771 162.518C311.005 173.364 314.551 188.586 318.042 208.492C325.022 248.304 331.78 306.845 335.384 386.585C339.885 486.195 302.148 572.819 261.825 629.572C241.662 657.95 220.864 678.846 204.392 690.16C196.151 695.821 189.022 699.062 183.614 699.667C180.914 699.969 178.665 699.612 176.921 698.594C175.181 697.578 173.911 695.886 173.198 693.455C170.28 683.501 159.943 656.358 146.768 619.746C133.59 583.123 117.562 537.004 103.249 489.07C88.9354 441.135 76.3395 391.391 70.0202 347.519C63.6988 303.632 63.6678 265.677 74.4333 241.278C95.9993 192.403 128.111 168.086 166.906 155.85C205.692 143.618 251.159 143.457 299.492 142.948Z" stroke="url(#paint6_linear_287_4234)" stroke-opacity="0.9" stroke-width="0.546679"/>
</g>
<g id="Vector 111" filter="url(#filter4_f_287_4234)">
<path d="M96.8168 204.119C143.751 97.7213 325.499 104.637 430.597 103.529C440.387 114.058 363.644 227.442 371.476 400.781C381.265 617.455 207.35 777.605 194.681 734.382C182.011 691.158 49.8827 310.516 96.8168 204.119Z" fill="var(--fill-0, black)"/>
<path d="M430.472 103.804C430.961 104.392 431.208 105.337 431.187 106.694C431.165 108.113 430.852 109.931 430.282 112.146C429.14 116.576 426.981 122.532 424.133 129.943C418.44 144.756 410.005 165.343 401.511 191.015C384.521 242.365 367.284 314.081 371.202 400.794C376.094 509.055 335.09 603.202 291.278 664.885C269.37 695.727 246.77 718.439 228.871 730.736C219.917 736.889 212.168 740.414 206.286 741.072C203.35 741.401 200.901 741.012 198.999 739.902C197.103 738.795 195.719 736.952 194.943 734.305C188.602 712.673 152.41 606.731 123.662 492.873C109.289 435.947 96.78 377.054 90.7971 325.749C87.8057 300.096 86.4467 276.345 87.3001 255.689C88.1535 235.03 91.2197 217.484 97.0667 204.229C120.476 151.163 177.523 126.315 241.945 114.609C306.304 102.915 377.921 104.354 430.472 103.804Z" stroke="url(#paint7_linear_287_4234)" stroke-opacity="0.9" stroke-width="0.546679"/>
</g>
</g>
</g>
</g>
<defs>
<filter id="filter0_f_287_4234" x="45.3883" y="133.751" width="238.008" height="408.487" filterUnits="userSpaceOnUse" color-interpolation-filters="sRGB">
<feFlood flood-opacity="0" result="BackgroundImageFix"/>
<feBlend mode="normal" in="SourceGraphic" in2="BackgroundImageFix" result="shape"/>
<feGaussianBlur stdDeviation="3.7691" result="effect1_foregroundBlur_287_4234"/>
</filter>
<filter id="filter1_f_287_4234" x="45.4536" y="123.767" width="217.644" height="463.895" filterUnits="userSpaceOnUse" color-interpolation-filters="sRGB">
<feFlood flood-opacity="0" result="BackgroundImageFix"/>
<feBlend mode="normal" in="SourceGraphic" in2="BackgroundImageFix" result="shape"/>
<feGaussianBlur stdDeviation="3.82675" result="effect1_foregroundBlur_287_4234"/>
</filter>
<filter id="filter2_f_287_4234" x="35.9403" y="123.403" width="299.24" height="498.776" filterUnits="userSpaceOnUse" color-interpolation-filters="sRGB">
<feFlood flood-opacity="0" result="BackgroundImageFix"/>
<feBlend mode="normal" in="SourceGraphic" in2="BackgroundImageFix" result="shape"/>
<feGaussianBlur stdDeviation="9.29354" result="effect1_foregroundBlur_287_4234"/>
</filter>
<filter id="filter3_f_287_4234" x="24.985" y="102.22" width="351.493" height="638.279" filterUnits="userSpaceOnUse" color-interpolation-filters="sRGB">
<feFlood flood-opacity="0" result="BackgroundImageFix"/>
<feBlend mode="normal" in="SourceGraphic" in2="BackgroundImageFix" result="shape"/>
<feGaussianBlur stdDeviation="20.2271" result="effect1_foregroundBlur_287_4234"/>
</filter>
<filter id="filter4_f_287_4234" x="42.4628" y="59.2163" width="433.311" height="726.555" filterUnits="userSpaceOnUse" color-interpolation-filters="sRGB">
<feFlood flood-opacity="0" result="BackgroundImageFix"/>
<feBlend mode="normal" in="SourceGraphic" in2="BackgroundImageFix" result="shape"/>
<feGaussianBlur stdDeviation="22.1564" result="effect1_foregroundBlur_287_4234"/>
</filter>
<linearGradient id="paint0_linear_287_4234" x1="65.0661" y1="206.167" x2="130.218" y2="332.569" gradientUnits="userSpaceOnUse">
<stop stop-color="#C4C4C4"/>
<stop offset="1" stop-color="#C4C4C4" stop-opacity="0"/>
</linearGradient>
<linearGradient id="paint1_linear_287_4234" x1="281.046" y1="0" x2="281.046" y2="410.795" gradientUnits="userSpaceOnUse">
<stop stop-color="#1EBCAD"/>
<stop offset="1" stop-color="#0E9A8D"/>
</linearGradient>
<linearGradient id="paint2_linear_287_4234" x1="137.195" y1="141.291" x2="137.195" y2="514.298" gradientUnits="userSpaceOnUse">
<stop stop-color="#1EBCAD"/>
<stop offset="1" stop-color="#0E9A8D"/>
</linearGradient>
<linearGradient id="paint3_linear_287_4234" x1="164.392" y1="141.29" x2="164.392" y2="534.7" gradientUnits="userSpaceOnUse">
<stop stop-color="#1EBCAD"/>
<stop offset="1" stop-color="#0E9A8D"/>
</linearGradient>
<linearGradient id="paint4_linear_287_4234" x1="154.276" y1="131.421" x2="154.276" y2="580.009" gradientUnits="userSpaceOnUse">
<stop stop-color="#1EBCAD"/>
<stop offset="1" stop-color="#0E9A8D"/>
</linearGradient>
<linearGradient id="paint5_linear_287_4234" x1="185.56" y1="141.99" x2="185.56" y2="603.592" gradientUnits="userSpaceOnUse">
<stop stop-color="#1EBCAD"/>
<stop offset="1" stop-color="#0E9A8D"/>
</linearGradient>
<linearGradient id="paint6_linear_287_4234" x1="200.731" y1="142.674" x2="200.731" y2="700.044" gradientUnits="userSpaceOnUse">
<stop stop-color="#1EBCAD"/>
<stop offset="1" stop-color="#0E9A8D"/>
</linearGradient>
<linearGradient id="paint7_linear_287_4234" x1="259.118" y1="103.529" x2="259.118" y2="741.459" gradientUnits="userSpaceOnUse">
<stop stop-color="#1EBCAD"/>
<stop offset="1" stop-color="#0E9A8D"/>
</linearGradient>
</defs>
</svg>
