<svg preserveAspectRatio="none" width="100%" height="100%" overflow="visible" style="display: block;" viewBox="0 0 34 30" fill="none" xmlns="http://www.w3.org/2000/svg">
<g id="Quote Icon">
<path id="&#226;&#128;&#156;" d="M12.987 30H0V13.8961C0 9.56711 0.865801 6.27706 2.5974 4.02598C4.50216 1.68831 7.70563 0.346321 12.2078 0V7.66234C10.6494 7.66234 9.35065 8.31169 8.31169 9.61039C7.79221 10.303 7.53247 11.645 7.53247 13.6364V16.1039H12.987V30ZM33.2468 30H20.2597V13.8961C20.2597 9.56711 21.039 6.40693 22.5974 4.41559C24.6753 1.81818 27.9654 0.346321 32.4675 0V7.66234C29.7836 7.66234 28.2684 9.00433 27.9221 11.6883C27.8355 12.0346 27.7922 12.684 27.7922 13.6364V16.1039H33.2468V30Z" fill="var(--fill-0, #0E9A8D)"/>
</g>
</svg>
