<svg preserveAspectRatio="none" width="100%" height="100%" overflow="visible" style="display: block;" viewBox="0 0 55 54" fill="none" xmlns="http://www.w3.org/2000/svg">
<g id="Group 47270">
<path id="Vector 117" d="M43.7123 7.61383C26.4672 -3.37466 3.17201 6.2864 3.00106 25.7567C2.83011 45.227 23.3568 58.5029 43.7123 46.1125" stroke="var(--stroke-0, #0E9A8D)" stroke-width="5.31015" stroke-linecap="round"/>
<path id="Vector 118" d="M17.6041 17.7908C26.0119 8.49821 41.3779 13.6962 42.8268 25.5302C44.1548 36.3766 29.5519 45.2268 18.4892 36.3765" stroke="var(--stroke-0, #0E9A8D)" stroke-width="5.31015" stroke-linecap="round"/>
<circle id="Ellipse 1402" cx="51.235" cy="40.3603" r="3.09759" fill="var(--fill-0, #0E9A8D)"/>
<circle id="Ellipse 1403" cx="51.235" cy="13.8095" r="3.09759" fill="var(--fill-0, #0E9A8D)"/>
<path id="Union" d="M28.2243 21.3323C31.157 21.3323 33.5345 23.6106 33.5345 26.4212C33.5345 29.2317 31.157 31.5101 28.2243 31.5101C25.644 31.5101 23.494 29.7463 23.0144 27.4082C22.3525 27.1859 20.8694 26.7306 19.8166 26.7306C18.844 26.7306 17.5042 27.1193 16.7838 27.3537C16.2584 28.2478 15.238 28.855 14.0639 28.855C12.3532 28.855 10.9663 27.5672 10.9663 25.9786C10.9663 24.3901 12.3532 23.1023 14.0639 23.1023C15.4534 23.1023 16.6289 23.9519 17.0215 25.1221C17.7726 25.3558 18.9428 25.6692 19.8166 25.6692C20.9431 25.6692 22.562 25.1469 23.1406 24.9476C23.8 22.8556 25.8263 21.3323 28.2243 21.3323Z" fill="var(--fill-0, #0E9A8D)"/>
</g>
</svg>
