<svg preserveAspectRatio="none" width="100%" height="100%" overflow="visible" style="display: block;" viewBox="0 0 909 1187" fill="none" xmlns="http://www.w3.org/2000/svg">
<g id="Group">
<path id="Vector" d="M566.636 554.982C552.514 542.64 544.325 526.381 547.529 499.798C558.448 410.079 611.14 328.312 592.27 234.914C582.539 186.97 552.751 148.281 512.402 121.461C321.571 -4.92865 157.562 87.8755 109.973 141.279C61.1975 195.989 95.8507 281.791 127.656 335.907C166.819 402.603 215.001 467.637 225.8 546.2C237.193 629.154 277.187 815.831 317.892 893.207C346.612 947.798 413.189 1019.72 474.9 1019.72C536.611 1019.72 592.151 950.765 635.587 906.973C679.022 863.182 884.568 1003.22 902.132 944C925.748 864.369 854.187 781.771 803.394 729.672C751.889 676.862 693.382 631.409 630.602 592.721C607.342 578.48 583.013 569.342 566.636 554.982Z" stroke="url(#paint0_linear_260_4247)" stroke-opacity="0.9" stroke-width="3"/>
<path id="Vector_2" d="M101.191 128.937C49.2107 187.207 86.2375 278.706 120.06 336.382C161.715 407.469 213.22 476.775 224.613 560.56C236.718 648.973 266.031 830.428 309.466 912.907C340.084 971.177 410.221 1040.25 476.086 1040.25C534.949 1040.25 588.116 978.772 630.958 938.897C675.105 897.835 860.713 1016.51 881.363 960.021C909.845 881.814 853.474 798.623 812.057 741.896C770.52 684.932 719.49 635.088 662.169 592.127C640.926 576.225 618.378 565.07 602.476 549.523C588.828 536.35 580.283 519.854 581.114 494.339C582.419 455.888 588.947 419.099 594.05 382.784C598.441 351.81 601.645 321.073 598.915 289.505C597.61 274.196 594.406 258.649 589.303 242.391C575.299 198.244 544.206 161.098 502.432 133.328C440.365 92.2665 380.79 69.8369 326.199 61.4109C223.901 45.5084 137.98 87.6382 101.191 128.937Z" stroke="url(#paint1_linear_260_4247)" stroke-opacity="0.9" stroke-width="3"/>
<path id="Vector_3" d="M92.2899 116.595C37.1058 178.425 76.3874 275.62 112.346 336.857C156.612 412.334 211.203 485.913 223.426 574.92C236.243 668.792 254.875 845.144 300.921 932.726C333.438 994.556 407.255 1060.9 477.036 1060.9C533.169 1060.9 583.962 1006.78 626.092 970.94C671.07 932.607 836.86 1030.04 860.239 976.161C893.705 899.378 852.287 815.712 820.364 754.357C788.559 693.358 745.361 639.004 693.5 591.772C674.393 574.326 653.625 561.153 638.078 544.301C624.905 530.179 615.886 513.327 614.343 488.999C611.97 451.497 612.444 416.013 611.258 381.36C610.308 352.047 608.291 323.446 601.408 293.896C598.085 279.892 592.863 265.414 585.98 250.105C568.06 209.874 535.187 174.153 492.226 145.433C431.939 105.202 373.551 78.5002 318.485 64.2592C222.833 39.3373 134.182 69.5996 92.2899 116.595Z" stroke="url(#paint2_linear_260_4247)" stroke-opacity="0.9" stroke-width="3"/>
<path id="Vector_4" d="M83.3896 104.253C25.0013 169.762 66.5377 272.535 104.514 337.45C151.391 417.319 209.186 495.288 222.003 589.398C235.65 688.729 243.483 859.859 292.14 952.545C326.556 1017.93 403.932 1081.54 477.867 1081.54C531.152 1081.54 579.809 1034.91 621.227 1002.98C667.035 967.498 813.006 1043.45 839.233 992.301C877.803 916.942 851.22 832.92 828.79 766.699C806.835 701.665 771.351 642.802 724.949 591.178C707.86 572.19 688.99 557 673.8 538.961C661.102 523.889 651.608 506.8 647.81 483.658C641.758 447.106 636.18 412.928 628.703 379.817C622.413 352.284 615.293 325.701 604.137 298.168C598.916 285.352 591.676 272.179 583.013 257.581C561.296 221.267 526.642 186.97 482.376 157.301C423.751 118.138 366.668 87.4009 311.009 66.87C221.765 34.2343 130.385 51.5609 83.3896 104.253Z" stroke="url(#paint3_linear_260_4247)" stroke-opacity="0.9" stroke-width="3"/>
<path id="Vector_5" d="M74.4889 91.9105C12.8964 160.98 56.6876 269.449 96.7999 337.925C146.169 422.303 207.168 504.426 220.816 603.758C235.175 708.548 232.327 874.575 283.714 972.245C320.028 1041.31 401.084 1102.08 479.054 1102.19C529.491 1102.19 576.13 1063.15 616.598 1034.91C663.357 1002.39 789.509 1056.98 818.465 1008.2C862.375 934.269 850.27 850.009 837.453 778.923C825.111 710.091 797.46 646.599 756.517 590.703C741.564 570.172 724.474 552.965 709.64 533.739C697.416 517.837 687.448 500.391 681.277 478.318C671.308 442.596 660.034 409.961 646.149 378.393C634.756 352.522 622.295 327.956 606.748 302.678C599.628 291.048 590.371 279.062 579.809 265.414C554.531 232.897 517.742 200.142 472.289 169.524C415.325 131.311 359.547 97.1322 303.295 69.9555C220.578 29.8432 126.706 33.4035 74.4889 91.9105Z" stroke="url(#paint4_linear_260_4247)" stroke-opacity="0.9" stroke-width="3"/>
<path id="Vector_6" d="M65.5883 79.5683C0.791497 152.198 46.8376 266.363 89.086 338.399C141.066 427.169 205.269 513.564 219.51 617.999C234.582 728.248 220.934 889.053 275.05 991.945C313.264 1064.57 397.88 1122.61 480.003 1122.73C527.592 1122.73 572.214 1091.28 611.733 1066.83C659.559 1037.28 765.892 1070.39 797.341 1024.22C846.71 951.833 848.728 867.217 845.761 791.265C842.912 718.636 823.212 650.516 787.728 590.11C774.793 568.155 759.602 548.811 745.243 528.28C733.494 511.547 722.932 493.746 714.624 472.859C700.739 438.087 683.887 406.638 663.475 376.85C646.979 352.759 629.415 330.211 609.359 306.95C600.458 296.507 589.303 285.589 576.723 272.891C548.123 244.052 509.078 213.078 462.202 181.392C406.899 144.128 352.071 106.982 295.463 72.5664C219.036 26.1643 122.909 15.3648 65.5883 79.5683Z" stroke="url(#paint5_linear_260_4247)" stroke-opacity="0.9" stroke-width="3"/>
<path id="Vector_7" d="M56.8062 67.3447C-11.1949 143.534 37.106 263.278 81.372 338.874C135.963 432.034 203.252 522.702 218.323 632.358C234.226 748.067 209.779 903.651 266.506 1011.65C306.618 1087.83 394.912 1143.26 480.952 1143.26C525.811 1143.26 568.297 1119.52 606.867 1098.75C655.761 1072.29 742.394 1083.92 776.335 1040.25C831.282 969.515 847.303 884.306 854.186 803.488C860.714 726.943 849.083 654.195 819.177 589.517C808.259 566.019 794.849 544.657 780.964 522.94C769.69 505.257 758.534 487.218 748.091 467.518C730.171 433.696 707.978 403.552 680.92 375.307C659.321 352.878 636.536 332.228 612.089 311.223C601.289 301.966 588.235 292.116 573.638 280.486C541.833 255.089 500.296 226.014 452.233 193.259C398.591 156.945 344.357 117.188 287.867 75.2959C217.018 22.8414 119.111 -2.67382 56.8062 67.3447Z" stroke="url(#paint6_linear_260_4247)" stroke-opacity="0.9" stroke-width="3"/>
<path id="Vector_8" d="M47.9057 55.0025C-23.2995 134.871 27.3749 260.311 73.777 339.468C130.979 437.019 201.472 531.959 217.137 646.837C233.751 768.005 198.624 918.485 258.08 1031.58C299.972 1111.45 391.946 1164.02 482.139 1164.02C524.15 1164.02 564.737 1148.24 602.357 1130.91C652.438 1107.77 719.253 1097.8 755.686 1056.5C816.211 987.673 846.117 901.633 862.85 816.068C878.634 735.606 875.074 658.348 850.745 589.279C841.844 564.239 830.214 540.86 816.804 517.955C805.886 499.442 794.137 481.047 781.557 462.415C759.602 429.78 731.951 400.467 698.366 374.121C671.783 353.234 643.775 334.602 614.818 315.97C602.239 307.9 587.286 298.999 570.552 288.437C535.543 266.363 491.515 239.305 442.264 205.602C390.284 169.999 336.168 127.988 280.272 78.2629C214.645 19.7559 115.313 -20.7125 47.9057 55.0025Z" stroke="url(#paint7_linear_260_4247)" stroke-opacity="0.9" stroke-width="3"/>
<path id="Vector_9" d="M617.548 320.123C544.562 284.521 409.866 225.539 272.677 81.1111C211.678 16.789 111.634 -38.7511 39.0048 42.6602C-35.4047 126.089 17.5246 257.225 65.9441 339.942C125.638 441.884 199.335 541.097 215.831 661.197C233.276 787.823 187.349 933.082 249.416 1051.28C293.208 1134.71 388.86 1184.56 483.088 1184.56C577.317 1184.56 668.222 1139.22 734.561 1072.41C800.901 1005.47 844.336 918.485 871.157 828.173C925.51 644.819 883.381 474.995 715.692 372.341C684.124 352.996 650.895 336.382 617.548 320.123Z" stroke="url(#paint8_linear_260_4247)" stroke-opacity="0.9" stroke-width="3"/>
</g>
<defs>
<linearGradient id="paint0_linear_260_4247" x1="496.242" y1="58.0917" x2="496.242" y2="1019.72" gradientUnits="userSpaceOnUse">
<stop stop-color="#1EBCAD"/>
<stop offset="1" stop-color="#0E9A8D"/>
</linearGradient>
<linearGradient id="paint1_linear_260_4247" x1="482.224" y1="57.9728" x2="482.224" y2="1040.25" gradientUnits="userSpaceOnUse">
<stop stop-color="#1EBCAD"/>
<stop offset="1" stop-color="#0E9A8D"/>
</linearGradient>
<linearGradient id="paint2_linear_260_4247" x1="468.748" y1="55.3128" x2="468.748" y2="1060.9" gradientUnits="userSpaceOnUse">
<stop stop-color="#1EBCAD"/>
<stop offset="1" stop-color="#0E9A8D"/>
</linearGradient>
<linearGradient id="paint3_linear_260_4247" x1="456.575" y1="50.3328" x2="456.575" y2="1081.55" gradientUnits="userSpaceOnUse">
<stop stop-color="#1EBCAD"/>
<stop offset="1" stop-color="#0E9A8D"/>
</linearGradient>
<linearGradient id="paint4_linear_260_4247" x1="446.583" y1="43.3288" x2="446.583" y2="1102.19" gradientUnits="userSpaceOnUse">
<stop stop-color="#1EBCAD"/>
<stop offset="1" stop-color="#0E9A8D"/>
</linearGradient>
<linearGradient id="paint5_linear_260_4247" x1="439.994" y1="34.5781" x2="439.994" y2="1122.73" gradientUnits="userSpaceOnUse">
<stop stop-color="#1EBCAD"/>
<stop offset="1" stop-color="#0E9A8D"/>
</linearGradient>
<linearGradient id="paint6_linear_260_4247" x1="439.457" y1="24.5563" x2="439.457" y2="1143.26" gradientUnits="userSpaceOnUse">
<stop stop-color="#1EBCAD"/>
<stop offset="1" stop-color="#0E9A8D"/>
</linearGradient>
<linearGradient id="paint7_linear_260_4247" x1="442.46" y1="13.6086" x2="442.46" y2="1164.02" gradientUnits="userSpaceOnUse">
<stop stop-color="#1EBCAD"/>
<stop offset="1" stop-color="#0E9A8D"/>
</linearGradient>
<linearGradient id="paint8_linear_260_4247" x1="447.755" y1="2" x2="447.755" y2="1184.56" gradientUnits="userSpaceOnUse">
<stop stop-color="#1EBCAD"/>
<stop offset="1" stop-color="#0E9A8D"/>
</linearGradient>
</defs>
</svg>
