<svg preserveAspectRatio="none" width="100%" height="100%" overflow="visible" style="display: block;" viewBox="0 0 25 21" fill="none" xmlns="http://www.w3.org/2000/svg">
<path id="Vector" d="M7.83333 19.5H17.1667M12.5 19.5V14.8333M3.16667 2H21.8333C22.1428 2 22.4395 2.12292 22.6583 2.34171C22.8771 2.5605 23 2.85725 23 3.16667V13.6667C23 13.9761 22.8771 14.2728 22.6583 14.4916C22.4395 14.7104 22.1428 14.8333 21.8333 14.8333H3.16667C2.85725 14.8333 2.5605 14.7104 2.34171 14.4916C2.12292 14.2728 2 13.9761 2 13.6667V3.16667C2 2.85725 2.12292 2.5605 2.34171 2.34171C2.5605 2.12292 2.85725 2 3.16667 2Z" stroke="var(--stroke-0, white)" stroke-width="2.33333" stroke-linecap="round" stroke-linejoin="round"/>
</svg>
