<svg preserveAspectRatio="none" width="100%" height="100%" overflow="visible" style="display: block;" viewBox="0 0 30 30" fill="none" xmlns="http://www.w3.org/2000/svg">
<path id="Vector" d="M12.1111 23.6667V23.5121C12.1111 22.3638 11.3947 21.3628 10.4977 20.6463C9.32689 19.7126 8.47529 18.4381 8.06074 16.9991C7.6462 15.5602 7.6892 14.0279 8.1838 12.6144C8.6784 11.201 9.60014 9.97621 10.8214 9.10966C12.0428 8.2431 13.5032 7.77761 15.0007 7.77761C16.4982 7.77761 17.9587 8.2431 19.18 9.10966C20.4013 9.97621 21.323 11.201 21.8176 12.6144C22.3122 14.0279 22.3552 15.5602 21.9407 16.9991C21.5262 18.4381 20.6746 19.7126 19.5038 20.6463C18.6053 21.3642 17.8889 22.3638 17.8889 23.5121V23.6667M12.1111 23.6667V26.5556C12.1111 26.9386 12.2633 27.306 12.5342 27.5769C12.8051 27.8478 13.1725 28 13.5556 28H16.4444C16.8275 28 17.1949 27.8478 17.4658 27.5769C17.7367 27.306 17.8889 26.9386 17.8889 26.5556V23.6667M12.1111 23.6667H17.8889M26.5556 15H28M3.44444 15H2M15 3.44444V2M23.1712 6.82878L24.1924 5.80756M6.83022 6.82878L5.80756 5.80756M15 19.3333V16.4444" stroke="var(--stroke-0, white)" stroke-width="2.16667" stroke-linecap="round" stroke-linejoin="round"/>
</svg>
