<svg preserveAspectRatio="none" width="100%" height="100%" overflow="visible" style="display: block;" viewBox="0 0 22 22" fill="none" xmlns="http://www.w3.org/2000/svg">
<g id="nonicons:node-16" clip-path="url(#clip0_285_4187)">
<path id="Vector" d="M10.4308 0.140233C10.5885 0.0481829 10.7679 -0.000322266 10.9505 -0.000322266C11.1331 -0.000322266 11.3125 0.0481829 11.4703 0.140233L20.0145 5.12461C20.1705 5.21529 20.2999 5.34529 20.3899 5.50164C20.4799 5.65799 20.5273 5.83521 20.5274 6.01561V15.9844C20.5273 16.1648 20.4799 16.342 20.3899 16.4983C20.2999 16.6547 20.1705 16.7847 20.0145 16.8754L11.4703 21.8597C11.3125 21.9518 11.1331 22.0003 10.9505 22.0003C10.7679 22.0003 10.5885 21.9518 10.4308 21.8597L8.29538 20.614C8.05907 20.4761 7.8872 20.2501 7.81757 19.9855C7.74795 19.7209 7.78628 19.4395 7.92413 19.2032C8.06197 18.9669 8.28805 18.7951 8.55261 18.7254C8.81718 18.6558 9.09857 18.6941 9.33488 18.832L10.9505 19.7752L18.4649 15.3917V6.60823L10.9505 2.22473L3.4375 6.60823V15.3917L4.97338 16.2882C5.44638 16.4395 6.03213 16.4766 6.44325 16.2951C6.65847 16.2008 6.83505 16.0359 6.94375 15.8276C7.08675 15.5691 7.21875 15.1387 7.21875 14.4375V7.21873C7.21875 6.94523 7.3274 6.68293 7.5208 6.48953C7.71419 6.29613 7.9765 6.18748 8.25 6.18748C8.52351 6.18748 8.78581 6.29613 8.9792 6.48953C9.1726 6.68293 9.28125 6.94523 9.28125 7.21873V14.4375C9.28125 15.3881 9.1025 16.1856 8.745 16.83C8.41826 17.4304 7.90188 17.9057 7.2765 18.1816C6.16825 18.6711 4.94313 18.4704 4.19375 18.2009C4.13516 18.1782 4.0782 18.1516 4.02325 18.1211L1.8865 16.8754C1.7308 16.7845 1.60164 16.6544 1.5119 16.4981C1.42215 16.3418 1.37495 16.1646 1.375 15.9844V6.01561C1.37495 5.83534 1.42215 5.65821 1.5119 5.50188C1.60164 5.34554 1.7308 5.21546 1.8865 5.12461L10.4308 0.140233ZM11.3383 7.26411C11.8841 6.61511 12.7366 6.18748 13.893 6.18748C14.9655 6.18748 15.7836 6.55598 16.3378 7.14036C16.4341 7.23811 16.51 7.35411 16.5609 7.48157C16.6118 7.60902 16.6368 7.74536 16.6344 7.88259C16.632 8.01982 16.6022 8.15519 16.5467 8.28076C16.4913 8.40632 16.4114 8.51956 16.3116 8.61383C16.2118 8.7081 16.0943 8.7815 15.9658 8.82974C15.8373 8.87798 15.7004 8.90009 15.5633 8.89476C15.4261 8.88943 15.2914 8.85677 15.167 8.79871C15.0427 8.74064 14.9311 8.65833 14.839 8.55661C14.7166 8.43148 14.465 8.24998 13.8916 8.24998C13.2839 8.24998 13.0336 8.45348 12.9168 8.59098C12.7961 8.73772 12.7261 8.91958 12.7174 9.10936C12.7174 9.22348 12.7669 9.44898 12.9168 9.62773C13.0336 9.76523 13.2839 9.96873 13.893 9.96873C13.9916 9.96936 14.0896 9.98323 14.1845 10.01C15.037 10.1337 15.686 10.516 16.1315 11.0454C16.643 11.6545 16.8135 12.375 16.8135 12.8906C16.8135 13.4062 16.643 14.1267 16.1315 14.7359C15.5856 15.3849 14.7331 15.8125 13.5768 15.8125C12.5043 15.8125 11.6861 15.444 11.1334 14.8596C10.9523 14.6597 10.8567 14.3968 10.8672 14.1272C10.8777 13.8577 10.9933 13.603 11.1894 13.4177C11.3855 13.2325 11.6463 13.1314 11.916 13.1362C12.1857 13.141 12.4428 13.2513 12.6321 13.4434C12.7518 13.5699 13.0048 13.75 13.5768 13.75C14.1845 13.75 14.4361 13.5465 14.553 13.409C14.6732 13.2621 14.7426 13.0802 14.751 12.8906C14.7422 12.7008 14.6723 12.519 14.5516 12.3722C14.4361 12.2347 14.1845 12.0312 13.5768 12.0312C13.4777 12.0307 13.3792 12.0169 13.2839 11.99C12.4314 11.8662 11.7824 11.484 11.3383 10.9546C10.9055 10.4362 10.6642 9.78464 10.6549 9.10936C10.6549 8.59373 10.8254 7.87323 11.3383 7.26411Z" fill="var(--fill-0, #535353)"/>
</g>
<defs>
<clipPath id="clip0_285_4187">
<rect width="22" height="22" fill="white"/>
</clipPath>
</defs>
</svg>
