<svg preserveAspectRatio="none" width="100%" height="100%" overflow="visible" style="display: block;" viewBox="0 0 22 22" fill="none" xmlns="http://www.w3.org/2000/svg">
<g id="ri:linkedin-fill">
<path id="Vector" d="M6.246 4.5C6.24576 4.97739 6.05589 5.43513 5.71816 5.77253C5.38042 6.10993 4.92249 6.29934 4.4451 6.2991C3.96771 6.29886 3.50997 6.10899 3.17257 5.77126C2.83517 5.43352 2.64576 4.97559 2.646 4.4982C2.64624 4.02081 2.83611 3.56307 3.17384 3.22567C3.51158 2.88827 3.96951 2.69886 4.4469 2.6991C4.92429 2.69934 5.38203 2.88921 5.71943 3.22694C6.05683 3.56468 6.24624 4.02261 6.246 4.5ZM6.3 7.632H2.7V18.9H6.3V7.632ZM11.988 7.632H8.406V18.9H11.952V12.987C11.952 9.693 16.245 9.387 16.245 12.987V18.9H19.8V11.763C19.8 6.21 13.446 6.417 11.952 9.144L11.988 7.632Z" fill="var(--fill-0, white)"/>
</g>
</svg>
