<svg preserveAspectRatio="none" width="100%" height="100%" overflow="visible" style="display: block;" viewBox="0 0 28 24" fill="none" xmlns="http://www.w3.org/2000/svg">
<path id="Vector" d="M8.66667 22H19.3333M14 22V16.6667M3.33333 2H24.6667C25.0203 2 25.3594 2.14048 25.6095 2.39052C25.8595 2.64057 26 2.97971 26 3.33333V15.3333C26 15.687 25.8595 16.0261 25.6095 16.2761C25.3594 16.5262 25.0203 16.6667 24.6667 16.6667H3.33333C2.97971 16.6667 2.64057 16.5262 2.39052 16.2761C2.14048 16.0261 2 15.687 2 15.3333V3.33333C2 2.97971 2.14048 2.64057 2.39052 2.39052C2.64057 2.14048 2.97971 2 3.33333 2Z" stroke="var(--stroke-0, white)" stroke-width="2.33333" stroke-linecap="round" stroke-linejoin="round"/>
</svg>
