<svg preserveAspectRatio="none" width="100%" height="100%" overflow="visible" style="display: block;" viewBox="0 0 22 22" fill="none" xmlns="http://www.w3.org/2000/svg">
<g id="fontisto:swift" clip-path="url(#clip0_285_4162)">
<path id="Vector" d="M20.1228 13.7559C20.1741 13.6532 20.1741 13.5506 20.2255 13.4487C21.4573 8.62339 18.5309 2.97765 13.5011 0.000805664C15.1582 2.08335 16.058 4.66746 16.0527 7.32886C16.0528 8.15261 15.9673 8.97414 15.7977 9.78023L15.8115 9.70284C15.7406 10.0206 15.6527 10.2959 15.5427 10.5599L15.5549 10.5265C15.4081 10.4451 15.2656 10.3561 15.128 10.2601L15.1435 10.2699C11.268 7.70443 7.89201 4.91333 4.83695 1.80614L4.82799 1.79718C6.81418 4.73166 8.87288 7.29627 11.119 9.68166L11.0896 9.64988C7.73233 7.49913 4.81496 5.26853 2.09637 2.82204L2.15828 2.87663C2.54444 3.51534 2.95015 4.06851 3.39986 4.58176L3.38845 4.56791C6.0769 8.17124 9.08307 11.3069 12.4306 14.0394L12.5259 14.1143C9.90834 15.707 6.26346 15.8089 2.56725 14.1143C1.64772 13.6836 0.775405 13.1586 -0.0356506 12.5477L0.00182468 12.5746C1.64911 15.1384 3.97747 17.1376 6.7319 18.3417L6.82966 18.38C8.20892 19.0635 9.83339 19.4643 11.5516 19.4643C13.2697 19.4643 14.8942 19.0643 16.337 18.3523L16.2734 18.3808H16.3256C16.444 18.3276 16.5466 18.2592 16.6335 18.1755H16.6327C17.8645 17.5596 20.2776 16.894 21.612 19.457C21.9705 20.1756 22.6377 16.8394 20.1236 13.7591L20.1228 13.7559Z" fill="var(--fill-0, #535353)"/>
</g>
<defs>
<clipPath id="clip0_285_4162">
<rect width="22" height="22" fill="white"/>
</clipPath>
</defs>
</svg>
