<svg preserveAspectRatio="none" width="100%" height="100%" overflow="visible" style="display: block;" viewBox="0 0 1640 1740" fill="none" xmlns="http://www.w3.org/2000/svg">
<g id="Mask Group">
<mask id="mask0_260_4187" style="mask-type:alpha" maskUnits="userSpaceOnUse" x="-1" y="-1" width="1641" height="1742">
<path id="Vector 116" d="M0 78.8737C408.307 79.4399 1506.96 -82.8453 1475.95 56.5341L1639.23 1642.12L209.059 1739.59L0 78.8737Z" fill="url(#paint0_linear_260_4187)" stroke="url(#paint1_linear_260_4187)" stroke-opacity="0.9"/>
</mask>
<g mask="url(#mask0_260_4187)">
<g id="Group 46881">
<g id="Ellipse 1395">
<path d="M1324 726.399C1324 872.177 1177.77 994.743 1046.67 994.743C915.573 994.743 743.528 935.732 743.528 779.324C743.528 701.817 655.892 607.709 721.176 515.623C787.634 421.884 966.437 443.199 1032.57 443.199C1163.67 443.199 1324 580.621 1324 726.399Z" fill="var(--fill-0, #1F847B)"/>
<path d="M877.047 444.756C938.29 438.371 999.441 443.699 1032.57 443.699C1097.96 443.699 1170.7 477.981 1227.11 530.499C1283.51 583.015 1323.5 653.691 1323.5 726.399C1323.5 799.117 1287.03 866.078 1234.16 914.871C1181.29 963.665 1112.07 994.243 1046.67 994.243C981.185 994.243 905.491 979.502 846.188 945.253C786.902 911.015 744.029 857.306 744.029 779.325C744.029 759.862 738.528 739.383 731.329 718.211C724.116 697.002 715.224 675.158 708.349 652.793C694.618 608.123 689.076 561.766 721.584 515.913C754.681 469.23 815.8 451.142 877.047 444.756Z" stroke="url(#paint2_linear_260_4187)" stroke-opacity="0.9"/>
</g>
<g id="Ellipse 1396" filter="url(#filter0_f_260_4187)">
<path d="M1312.77 724.651C1312.77 880.994 1187.07 992.885 1074.39 992.885C961.697 992.885 813.813 933.898 813.813 777.554C813.813 700.079 735.553 606.009 791.669 513.961C848.794 420.26 1002.49 441.566 1059.33 441.566C1172.02 441.566 1312.77 568.307 1312.77 724.651Z" fill="var(--fill-0, #1F847B)"/>
<path d="M925.666 443.121C978.299 436.74 1030.84 442.066 1059.33 442.066C1115.5 442.066 1178.74 473.665 1227.95 524.827C1277.15 575.979 1312.27 646.631 1312.27 724.651C1312.27 880.738 1186.78 992.385 1074.39 992.385C1018.12 992.385 953.076 977.656 902.12 943.434C851.184 909.226 814.312 855.539 814.312 777.554C814.312 758.108 809.403 737.644 802.939 716.481C796.464 695.279 788.456 673.448 782.179 651.087C769.641 606.424 764.148 560.066 792.097 514.221C820.537 467.57 873.045 449.502 925.666 443.121Z" stroke="url(#paint3_linear_260_4187)" stroke-opacity="0.9"/>
</g>
<g id="Ellipse 1397" filter="url(#filter1_f_260_4187)">
<path d="M1312.77 729.388C1312.77 904.618 1157.8 1030.03 1018.87 1030.03C879.94 1030.03 697.618 963.913 697.618 788.683C697.618 701.847 588.19 596.413 657.375 493.246C727.803 388.225 929.039 412.105 999.123 412.105C1138.05 412.105 1312.77 554.157 1312.77 729.388Z" fill="var(--fill-0, #1F847B)"/>
<path d="M828.431 413.79C896.271 406.636 964.017 412.605 999.123 412.605C1068.43 412.605 1146.73 448.047 1207.7 505.399C1268.67 562.746 1312.27 641.942 1312.27 729.387C1312.27 904.317 1157.55 1029.53 1018.87 1029.53C949.473 1029.53 869.256 1013.01 806.406 974.639C743.576 936.279 698.118 876.089 698.118 788.682C698.118 766.877 691.25 743.935 682.068 720.215C677.475 708.351 672.297 696.28 667.103 684.052C661.907 671.82 656.694 659.429 652.021 646.914C633.328 596.847 623.337 544.9 657.79 493.524C692.871 441.212 760.583 420.945 828.431 413.79Z" stroke="url(#paint4_linear_260_4187)" stroke-opacity="0.9"/>
</g>
<g id="Ellipse 1398" filter="url(#filter2_f_260_4187)">
<path d="M1296.32 749.609C1262.24 965.955 1082.04 1145.16 919.443 1145.16C756.842 1145.16 581.061 1035.35 581.061 825.199C581.061 721.057 403.844 587.182 484.816 463.453C567.242 337.501 789.01 366.141 871.034 366.141C1033.64 366.141 1335.8 498.983 1296.32 749.609Z" fill="var(--fill-0, #1F847B)"/>
<path d="M678.131 368.062C754.095 359.482 829.953 366.641 871.034 366.641C952.227 366.641 1068.32 399.817 1159.17 464.298C1250 528.77 1315.52 624.47 1295.82 749.53C1278.8 857.594 1225.28 956.391 1155.72 1028.17C1086.14 1099.95 1000.57 1144.66 919.443 1144.66C757.03 1144.66 581.561 1035 581.561 825.199C581.561 799.035 570.434 771.049 555.079 741.907C547.398 727.33 538.648 712.448 529.688 697.344C520.726 682.237 511.552 666.91 503.011 651.43C468.83 589.48 444.92 525.328 485.234 463.727C526.32 400.945 602.171 376.642 678.131 368.062Z" stroke="url(#paint5_linear_260_4187)" stroke-opacity="0.9"/>
</g>
<g id="Ellipse 1399" filter="url(#filter3_f_260_4187)">
<path d="M1230.51 822.502C1230.51 1048.78 1021.01 1243.59 862.039 1243.59C703.062 1243.59 531.201 1125.35 531.201 899.072C531.201 786.938 470.529 650.788 549.696 517.564C630.285 381.947 847.109 412.784 927.305 412.784C1086.28 412.784 1230.51 596.221 1230.51 822.502Z" fill="var(--fill-0, #1F847B)"/>
<path d="M738.709 414.814C812.975 405.576 887.131 413.284 927.305 413.284C1006.59 413.284 1082.26 459.031 1138.12 533.089C1193.99 607.142 1230.01 709.465 1230.01 822.502C1230.01 935.489 1177.71 1040.64 1105.53 1117.56C1033.34 1194.48 941.342 1243.09 862.038 1243.09C703.299 1243.09 531.7 1125.04 531.7 899.071C531.7 870.998 527.903 841.432 523.452 810.818C519 780.192 513.893 748.519 511.259 716.186C505.991 651.532 510.617 584.307 550.126 517.819C590.301 450.212 664.457 424.05 738.709 414.814Z" stroke="url(#paint6_linear_260_4187)" stroke-opacity="0.9"/>
</g>
<g id="Ellipse 1400" filter="url(#filter4_f_260_4187)">
<path d="M1167.05 910.574C1167.05 1144.41 952.781 1345.73 790.179 1345.73C627.578 1345.73 451.798 1223.54 451.798 989.702C451.798 873.822 389.743 733.123 470.715 595.449C553.141 455.301 774.909 487.168 856.934 487.168C1019.53 487.168 1167.05 676.734 1167.05 910.574Z" fill="var(--fill-0, #1F847B)"/>
<path d="M664.037 489.249C739.997 479.703 815.845 487.668 856.934 487.668C938.032 487.668 1015.43 534.944 1072.57 611.48C1129.71 688.01 1166.55 793.756 1166.55 910.575C1166.55 1027.34 1113.05 1136.01 1039.23 1215.5C965.389 1295 871.293 1345.23 790.18 1345.23C627.82 1345.23 452.298 1223.23 452.298 989.702C452.298 960.692 448.414 930.14 443.861 898.502C439.307 866.855 434.085 834.123 431.391 800.708C426.003 733.892 430.732 664.415 471.146 595.702C512.24 525.829 588.093 498.794 664.037 489.249Z" stroke="url(#paint7_linear_260_4187)" stroke-opacity="0.9"/>
</g>
<g id="Ellipse 1401" filter="url(#filter5_f_260_4187)">
<path d="M1192.91 734.694C1192.91 939.304 978.633 1115.45 816.032 1115.45C653.431 1115.45 477.651 1008.54 477.651 803.93C477.651 702.536 434.398 579.424 515.37 458.959C597.796 336.329 819.564 364.213 901.589 364.213C1064.19 364.213 1192.91 530.083 1192.91 734.694Z" fill="var(--fill-0, #1F847B)"/>
<path d="M708.684 366.097C784.649 357.743 860.51 364.713 901.589 364.713C1063.81 364.713 1192.41 530.239 1192.41 734.694C1192.41 836.823 1138.93 931.89 1065.1 1001.44C991.272 1070.99 897.17 1114.95 816.032 1114.95C653.606 1114.95 478.15 1008.17 478.15 803.93C478.15 778.552 475.444 751.82 472.655 724.143C469.865 696.457 466.991 667.82 466.645 638.59C465.954 580.143 475.374 519.359 515.785 459.238C556.869 398.115 632.721 374.451 708.684 366.097Z" stroke="url(#paint8_linear_260_4187)" stroke-opacity="0.9"/>
</g>
</g>
</g>
</g>
<defs>
<filter id="filter0_f_260_4187" x="767.409" y="435.484" width="549.361" height="561.401" filterUnits="userSpaceOnUse" color-interpolation-filters="sRGB">
<feFlood flood-opacity="0" result="BackgroundImageFix"/>
<feBlend mode="normal" in="SourceGraphic" in2="BackgroundImageFix" result="shape"/>
<feGaussianBlur stdDeviation="2" result="effect1_foregroundBlur_260_4187"/>
</filter>
<filter id="filter1_f_260_4187" x="620.444" y="395.771" width="706.326" height="648.255" filterUnits="userSpaceOnUse" color-interpolation-filters="sRGB">
<feFlood flood-opacity="0" result="BackgroundImageFix"/>
<feBlend mode="normal" in="SourceGraphic" in2="BackgroundImageFix" result="shape"/>
<feGaussianBlur stdDeviation="7" result="effect1_foregroundBlur_260_4187"/>
</filter>
<filter id="filter2_f_260_4187" x="443.628" y="343.342" width="876.209" height="821.819" filterUnits="userSpaceOnUse" color-interpolation-filters="sRGB">
<feFlood flood-opacity="0" result="BackgroundImageFix"/>
<feBlend mode="normal" in="SourceGraphic" in2="BackgroundImageFix" result="shape"/>
<feGaussianBlur stdDeviation="10" result="effect1_foregroundBlur_260_4187"/>
</filter>
<filter id="filter3_f_260_4187" x="454.981" y="355.771" width="829.53" height="941.816" filterUnits="userSpaceOnUse" color-interpolation-filters="sRGB">
<feFlood flood-opacity="0" result="BackgroundImageFix"/>
<feBlend mode="normal" in="SourceGraphic" in2="BackgroundImageFix" result="shape"/>
<feGaussianBlur stdDeviation="27" result="effect1_foregroundBlur_260_4187"/>
</filter>
<filter id="filter4_f_260_4187" x="295.071" y="350.054" width="1005.98" height="1129.67" filterUnits="userSpaceOnUse" color-interpolation-filters="sRGB">
<feFlood flood-opacity="0" result="BackgroundImageFix"/>
<feBlend mode="normal" in="SourceGraphic" in2="BackgroundImageFix" result="shape"/>
<feGaussianBlur stdDeviation="67" result="effect1_foregroundBlur_260_4187"/>
</filter>
<filter id="filter5_f_260_4187" x="404.111" y="299.489" width="850.795" height="877.963" filterUnits="userSpaceOnUse" color-interpolation-filters="sRGB">
<feFlood flood-opacity="0" result="BackgroundImageFix"/>
<feBlend mode="normal" in="SourceGraphic" in2="BackgroundImageFix" result="shape"/>
<feGaussianBlur stdDeviation="31" result="effect1_foregroundBlur_260_4187"/>
</filter>
<linearGradient id="paint0_linear_260_4187" x1="1303.37" y1="723.614" x2="631.074" y2="748.522" gradientUnits="userSpaceOnUse">
<stop stop-color="#C4C4C4"/>
<stop offset="1" stop-color="#C4C4C4" stop-opacity="0"/>
</linearGradient>
<linearGradient id="paint1_linear_260_4187" x1="819.614" y1="0" x2="819.614" y2="1739.59" gradientUnits="userSpaceOnUse">
<stop stop-color="#1EBCAD"/>
<stop offset="1" stop-color="#0E9A8D"/>
</linearGradient>
<linearGradient id="paint2_linear_260_4187" x1="1010.5" y1="441.116" x2="1010.5" y2="994.743" gradientUnits="userSpaceOnUse">
<stop stop-color="#1EBCAD"/>
<stop offset="1" stop-color="#0E9A8D"/>
</linearGradient>
<linearGradient id="paint3_linear_260_4187" x1="1042.09" y1="439.484" x2="1042.09" y2="992.885" gradientUnits="userSpaceOnUse">
<stop stop-color="#1EBCAD"/>
<stop offset="1" stop-color="#0E9A8D"/>
</linearGradient>
<linearGradient id="paint4_linear_260_4187" x1="973.607" y1="409.771" x2="973.607" y2="1030.03" gradientUnits="userSpaceOnUse">
<stop stop-color="#1EBCAD"/>
<stop offset="1" stop-color="#0E9A8D"/>
</linearGradient>
<linearGradient id="paint5_linear_260_4187" x1="881.733" y1="363.342" x2="881.733" y2="1145.16" gradientUnits="userSpaceOnUse">
<stop stop-color="#1EBCAD"/>
<stop offset="1" stop-color="#0E9A8D"/>
</linearGradient>
<linearGradient id="paint6_linear_260_4187" x1="869.746" y1="409.771" x2="869.746" y2="1243.59" gradientUnits="userSpaceOnUse">
<stop stop-color="#1EBCAD"/>
<stop offset="1" stop-color="#0E9A8D"/>
</linearGradient>
<linearGradient id="paint7_linear_260_4187" x1="798.062" y1="484.054" x2="798.062" y2="1345.73" gradientUnits="userSpaceOnUse">
<stop stop-color="#1EBCAD"/>
<stop offset="1" stop-color="#0E9A8D"/>
</linearGradient>
<linearGradient id="paint8_linear_260_4187" x1="829.509" y1="361.489" x2="829.509" y2="1115.45" gradientUnits="userSpaceOnUse">
<stop stop-color="#1EBCAD"/>
<stop offset="1" stop-color="#0E9A8D"/>
</linearGradient>
</defs>
</svg>
