<svg width="247" height="378" viewBox="0 0 247 378" fill="none" xmlns="http://www.w3.org/2000/svg">
<path d="M189 133.003V245.996C188.833 245.998 188.667 246 188.5 246C157.296 246 132 220.704 132 189.5C132 158.296 157.296 133 188.5 133C188.667 133 188.834 133.001 189 133.003Z" fill="#39976C"/>
<path d="M189 0C209.155 0 228.572 3.1573 246.786 9H228C206.461 9 189 26.4609 189 48V70.0029C188.833 70.0023 188.667 70 188.5 70C122.502 70 69 123.502 69 189.5C69 255.498 122.502 309 188.5 309C188.667 309 188.833 308.997 189 308.996V330C189 351.539 206.461 369 228 369H246.786C228.572 374.843 209.155 378 189 378C84.6182 378 0 293.382 0 189C0 84.6182 84.6182 0 189 0Z" fill="#8BE4BB"/>
</svg>
