<svg preserveAspectRatio="none" width="100%" height="100%" overflow="visible" style="display: block;" viewBox="0 0 563 412" fill="none" xmlns="http://www.w3.org/2000/svg">
<g id="Mask Group" opacity="0.6">
<mask id="mask0_285_4190" style="mask-type:alpha" maskUnits="userSpaceOnUse" x="-1" y="-1" width="564" height="413">
<path id="Vector 114" d="M65.4605 59.8057C175.8 51.5909 538.628 5.02557 562.092 0L498.101 277.076L366.339 342.909L111.767 335.547L4.34335 410.795L0 169.395L65.4605 59.8057Z" fill="url(#paint0_linear_285_4190)" stroke="url(#paint1_linear_285_4190)" stroke-opacity="0.9" stroke-width="0.668873"/>
</mask>
<g mask="url(#mask0_285_4190)">
<g id="Group 46880">
<g id="Vector 103">
<path d="M55.4112 203.764C84.3419 136.377 135.991 141.992 200.774 141.29C206.809 147.959 220.085 188.742 224.913 298.528C230.948 435.759 123.744 537.191 115.935 509.815C108.125 482.439 26.4805 271.152 55.4112 203.764Z" fill="var(--fill-0, black)"/>
<path d="M200.649 141.565C202.107 143.232 204.025 146.962 206.154 153.321C208.317 159.782 210.691 168.923 213.028 181.291C217.701 206.027 222.227 243.656 224.64 298.539C227.654 367.082 202.388 426.691 175.391 465.744C161.891 485.273 147.969 499.647 136.949 507.426C131.433 511.32 126.673 513.54 123.076 513.953C121.282 514.16 119.798 513.914 118.653 513.227C117.511 512.542 116.671 511.399 116.198 509.741C114.243 502.889 107.671 484.533 99.3744 459.835C91.0748 435.127 81.0422 404.048 72.1586 371.721C63.2747 339.393 55.5418 305.824 51.8363 276.13C48.1291 246.423 48.4611 220.647 55.6625 203.872C70.0974 170.25 90.1805 154.866 114.724 147.783C139.272 140.698 168.282 141.911 200.649 141.565Z" stroke="url(#paint2_linear_285_4190)" stroke-opacity="0.9" stroke-width="0.546679"/>
</g>
<g id="Vector 107" filter="url(#filter0_f_285_4190)">
<path d="M59.9458 210.409C91.9941 138.125 169.476 142.043 241.241 141.29C313.479 147.607 249.382 231.655 254.73 349.419C261.415 496.623 132.803 556.835 124.152 527.469C115.501 498.104 27.8974 282.693 59.9458 210.409Z" fill="var(--fill-0, black)"/>
<path d="M241.229 141.563C250.227 142.351 257.078 144.347 262.199 147.45C267.318 150.551 270.722 154.765 272.818 160.016C277.018 170.544 275.964 185.249 272.8 203.515C266.48 240.002 251.781 290.51 254.457 349.431C257.796 422.945 227.352 474.722 195.007 504.456C178.831 519.325 162.189 528.674 149.069 532.475C142.506 534.377 136.846 534.884 132.574 534.019C128.314 533.157 125.46 530.94 124.414 527.392C122.249 520.042 115.145 501.055 106.221 475.614C97.2931 450.163 86.5349 418.23 77.049 384.959C67.5627 351.685 59.3506 317.08 55.5119 286.281C51.6717 255.47 52.2158 228.518 60.1955 210.52C76.1779 174.472 103.481 157.426 135.767 149.291C168.07 141.152 205.333 141.939 241.229 141.563Z" stroke="url(#paint3_linear_285_4190)" stroke-opacity="0.9" stroke-width="0.546679"/>
</g>
<g id="Vector 108" filter="url(#filter1_f_285_4190)">
<path d="M60.2123 232.3C93.4865 156.845 160.223 132.206 234.733 131.42C241.673 138.887 249.61 215.48 255.162 338.408C262.103 492.068 138.805 605.643 129.823 574.99C120.841 544.336 26.9381 307.754 60.2123 232.3Z" fill="var(--fill-0, black)"/>
<path d="M234.609 131.695C234.989 132.133 235.387 132.808 235.795 133.735C236.229 134.721 236.669 135.975 237.113 137.493C238.001 140.528 238.9 144.602 239.803 149.673C241.608 159.815 243.424 173.922 245.196 191.643C248.741 227.084 252.113 276.959 254.89 338.42C258.356 415.175 229.294 481.925 198.24 525.658C182.712 547.525 166.697 563.624 154.018 572.338C147.672 576.699 142.192 579.191 138.042 579.656C135.971 579.888 134.253 579.612 132.925 578.836C131.601 578.063 130.63 576.774 130.085 574.913C127.837 567.241 120.278 546.69 110.736 519.034C101.191 491.367 89.6521 456.568 79.4345 420.371C69.2167 384.172 60.3216 346.583 56.0595 313.333C51.7957 280.068 52.176 251.199 60.4619 232.41C93.6575 157.133 160.21 132.507 234.609 131.695Z" stroke="url(#paint4_linear_285_4190)" stroke-opacity="0.9" stroke-width="0.546679"/>
</g>
<g id="Vector 109" filter="url(#filter2_f_285_4190)">
<path d="M62.6921 219.585C100.928 135.887 169.19 142.862 254.811 141.99C262.787 150.273 309.943 130.931 316.324 267.289C324.299 437.735 153.005 633.714 142.683 599.711C132.362 565.709 24.456 303.283 62.6921 219.585Z" fill="var(--fill-0, black)"/>
<path d="M254.702 142.265C255.761 143.307 257.404 143.908 259.414 144.424C260.453 144.69 261.606 144.939 262.844 145.211C264.085 145.484 265.416 145.782 266.821 146.151C272.434 147.626 279.228 150.228 285.975 156.807C299.48 169.975 312.861 199.138 316.05 267.302C320.034 352.441 279.241 443.988 236.136 510.019C214.586 543.031 192.469 569.649 175.104 585.885C166.417 594.007 158.938 599.511 153.327 601.93C150.518 603.14 148.216 603.56 146.479 603.187C144.771 602.82 143.566 601.677 142.945 599.632C140.362 591.123 131.676 568.329 120.71 537.65C109.741 506.961 96.4821 468.359 84.7407 428.207C72.9989 388.053 62.7772 346.356 57.8793 309.472C52.9796 272.573 53.4165 240.547 62.9409 219.698C82.0252 177.924 108.585 158.798 141.054 149.992C173.53 141.184 211.911 142.697 254.702 142.265Z" stroke="url(#paint5_linear_285_4190)" stroke-opacity="0.9" stroke-width="0.546679"/>
</g>
<g id="Vector 110" filter="url(#filter3_f_285_4190)">
<path d="M74.1843 241.168C117.382 143.267 202.883 143.694 299.615 142.674C308.626 152.362 328.449 227.076 335.658 386.572C344.668 585.943 184.597 733.304 172.936 693.532C161.275 653.76 30.9862 339.069 74.1843 241.168Z" fill="var(--fill-0, black)"/>
<path d="M299.493 142.948C300.568 144.143 301.823 146.305 303.205 149.502C304.617 152.771 306.155 157.096 307.772 162.519C311.006 173.364 314.552 188.586 318.042 208.492C325.023 248.305 331.78 306.845 335.384 386.585C339.886 486.195 302.149 572.819 261.826 629.572C241.663 657.951 220.864 678.847 204.393 690.16C196.152 695.821 189.022 699.062 183.615 699.667C180.915 699.969 178.666 699.612 176.921 698.594C175.182 697.578 173.912 695.887 173.199 693.455C170.28 683.502 159.944 656.358 146.769 619.746C133.59 583.123 117.562 537.004 103.249 489.07C88.9361 441.135 76.3402 391.392 70.0209 347.52C63.6994 303.633 63.6685 265.677 74.434 241.278C96 192.403 128.112 168.086 166.907 155.851C205.693 143.618 251.16 143.457 299.493 142.948Z" stroke="url(#paint6_linear_285_4190)" stroke-opacity="0.9" stroke-width="0.546679"/>
</g>
<g id="Vector 111" filter="url(#filter4_f_285_4190)">
<path d="M96.8173 204.119C143.751 97.7214 325.499 104.638 430.597 103.529C440.387 114.058 363.644 227.442 371.476 400.782C381.266 617.455 207.351 777.606 194.681 734.382C182.012 691.158 49.8832 310.516 96.8173 204.119Z" fill="var(--fill-0, black)"/>
<path d="M430.472 103.804C430.961 104.392 431.208 105.337 431.187 106.694C431.165 108.113 430.853 109.931 430.282 112.146C429.14 116.576 426.982 122.532 424.134 129.943C418.44 144.756 410.006 165.343 401.512 191.016C384.522 242.365 367.285 314.081 371.203 400.794C376.094 509.055 335.091 603.203 291.278 664.885C269.371 695.727 246.771 718.439 228.872 730.736C219.917 736.889 212.168 740.414 206.287 741.072C203.35 741.401 200.901 741.012 199 739.902C197.103 738.795 195.719 736.952 194.943 734.305C188.603 712.673 152.411 606.731 123.663 492.873C109.29 435.947 96.7806 377.054 90.7976 325.749C87.8062 300.096 86.4473 276.345 87.3006 255.689C88.154 235.03 91.2202 217.484 97.0672 204.229C120.476 151.163 177.523 126.315 241.945 114.609C306.305 102.915 377.921 104.354 430.472 103.804Z" stroke="url(#paint7_linear_285_4190)" stroke-opacity="0.9" stroke-width="0.546679"/>
</g>
</g>
</g>
</g>
<defs>
<filter id="filter0_f_285_4190" x="45.3888" y="133.752" width="238.008" height="408.487" filterUnits="userSpaceOnUse" color-interpolation-filters="sRGB">
<feFlood flood-opacity="0" result="BackgroundImageFix"/>
<feBlend mode="normal" in="SourceGraphic" in2="BackgroundImageFix" result="shape"/>
<feGaussianBlur stdDeviation="3.7691" result="effect1_foregroundBlur_285_4190"/>
</filter>
<filter id="filter1_f_285_4190" x="45.4539" y="123.767" width="217.644" height="463.895" filterUnits="userSpaceOnUse" color-interpolation-filters="sRGB">
<feFlood flood-opacity="0" result="BackgroundImageFix"/>
<feBlend mode="normal" in="SourceGraphic" in2="BackgroundImageFix" result="shape"/>
<feGaussianBlur stdDeviation="3.82675" result="effect1_foregroundBlur_285_4190"/>
</filter>
<filter id="filter2_f_285_4190" x="35.9407" y="123.403" width="299.24" height="498.776" filterUnits="userSpaceOnUse" color-interpolation-filters="sRGB">
<feFlood flood-opacity="0" result="BackgroundImageFix"/>
<feBlend mode="normal" in="SourceGraphic" in2="BackgroundImageFix" result="shape"/>
<feGaussianBlur stdDeviation="9.29354" result="effect1_foregroundBlur_285_4190"/>
</filter>
<filter id="filter3_f_285_4190" x="24.9856" y="102.22" width="351.493" height="638.279" filterUnits="userSpaceOnUse" color-interpolation-filters="sRGB">
<feFlood flood-opacity="0" result="BackgroundImageFix"/>
<feBlend mode="normal" in="SourceGraphic" in2="BackgroundImageFix" result="shape"/>
<feGaussianBlur stdDeviation="20.2271" result="effect1_foregroundBlur_285_4190"/>
</filter>
<filter id="filter4_f_285_4190" x="42.4633" y="59.2164" width="433.311" height="726.555" filterUnits="userSpaceOnUse" color-interpolation-filters="sRGB">
<feFlood flood-opacity="0" result="BackgroundImageFix"/>
<feBlend mode="normal" in="SourceGraphic" in2="BackgroundImageFix" result="shape"/>
<feGaussianBlur stdDeviation="22.1564" result="effect1_foregroundBlur_285_4190"/>
</filter>
<linearGradient id="paint0_linear_285_4190" x1="65.0661" y1="206.167" x2="130.218" y2="332.569" gradientUnits="userSpaceOnUse">
<stop stop-color="#C4C4C4"/>
<stop offset="1" stop-color="#C4C4C4" stop-opacity="0"/>
</linearGradient>
<linearGradient id="paint1_linear_285_4190" x1="281.046" y1="0" x2="281.046" y2="410.795" gradientUnits="userSpaceOnUse">
<stop stop-color="#1EBCAD"/>
<stop offset="1" stop-color="#0E9A8D"/>
</linearGradient>
<linearGradient id="paint2_linear_285_4190" x1="137.196" y1="141.29" x2="137.196" y2="514.298" gradientUnits="userSpaceOnUse">
<stop stop-color="#1EBCAD"/>
<stop offset="1" stop-color="#0E9A8D"/>
</linearGradient>
<linearGradient id="paint3_linear_285_4190" x1="164.393" y1="141.29" x2="164.393" y2="534.701" gradientUnits="userSpaceOnUse">
<stop stop-color="#1EBCAD"/>
<stop offset="1" stop-color="#0E9A8D"/>
</linearGradient>
<linearGradient id="paint4_linear_285_4190" x1="154.276" y1="131.42" x2="154.276" y2="580.009" gradientUnits="userSpaceOnUse">
<stop stop-color="#1EBCAD"/>
<stop offset="1" stop-color="#0E9A8D"/>
</linearGradient>
<linearGradient id="paint5_linear_285_4190" x1="185.561" y1="141.99" x2="185.561" y2="603.592" gradientUnits="userSpaceOnUse">
<stop stop-color="#1EBCAD"/>
<stop offset="1" stop-color="#0E9A8D"/>
</linearGradient>
<linearGradient id="paint6_linear_285_4190" x1="200.732" y1="142.674" x2="200.732" y2="700.044" gradientUnits="userSpaceOnUse">
<stop stop-color="#1EBCAD"/>
<stop offset="1" stop-color="#0E9A8D"/>
</linearGradient>
<linearGradient id="paint7_linear_285_4190" x1="259.119" y1="103.529" x2="259.119" y2="741.459" gradientUnits="userSpaceOnUse">
<stop stop-color="#1EBCAD"/>
<stop offset="1" stop-color="#0E9A8D"/>
</linearGradient>
</defs>
</svg>
