<svg preserveAspectRatio="none" width="100%" height="100%" overflow="visible" style="display: block;" viewBox="0 0 32 32" fill="none" xmlns="http://www.w3.org/2000/svg">
<g id="la:aws">
<path id="Vector" d="M6.58403 9.01C5.22403 9.01 3.84403 9.54 3.61403 9.83C3.55403 9.95 3.41403 10.92 3.74403 10.92C3.85403 10.92 3.90403 10.94 4.22403 10.79C5.42403 10.32 6.18403 10.33 6.29403 10.33C7.64403 10.2 8.42403 11.12 8.30403 12.31V13.01C7.16403 12.74 6.51403 12.73 6.19403 12.73C4.53403 12.63 3.00003 13.506 3.00003 15.43C3.00003 17.54 4.88303 17.99 5.61303 17.96C6.70303 17.97 7.74303 17.48 8.43303 16.63C8.98303 17.86 9.33303 17.78 9.34303 17.78C9.44303 17.78 9.52303 17.74 9.60303 17.69L10.173 17.29C10.273 17.23 10.353 17.13 10.363 17.01C10.353 16.72 9.83303 16.27 9.87303 15.26V12.14C9.90421 11.7147 9.84954 11.2875 9.71228 10.8838C9.57501 10.4801 9.35796 10.1081 9.07403 9.79C8.37973 9.21115 7.48449 8.93071 6.58403 9.01ZM25.957 9.01C23.957 9.01 22.807 10.26 22.837 11.53C22.837 13.27 24.597 13.82 24.797 13.88C26.487 14.41 26.717 14.43 27.187 14.83C27.587 15.24 27.537 16.04 26.947 16.39C26.777 16.49 26.047 16.93 24.397 16.59C23.847 16.48 23.557 16.35 23.107 16.16C22.987 16.12 22.707 16.05 22.707 16.42V16.91C22.707 17.14 22.847 17.35 23.057 17.45C24.107 17.98 25.367 18 25.637 18C25.677 18 27.977 18.001 28.747 16.45C28.905 16.13 29.317 14.96 28.547 13.96C27.907 13.21 27.357 13.13 25.717 12.63C25.577 12.59 24.367 12.28 24.377 11.43C24.317 10.34 25.797 10.28 26.107 10.3C27.357 10.28 27.977 10.75 28.317 10.78C28.467 10.78 28.537 10.69 28.537 10.49V10.03C28.5421 9.91956 28.5105 9.81054 28.447 9.72C28.047 9.2 26.517 9.01 25.957 9.01ZM10.777 9.26C10.667 9.28 10.587 9.39 10.607 9.5C10.627 9.63 10.647 9.76 10.697 9.89L12.937 17.28C12.987 17.52 13.147 17.78 13.497 17.74H14.317C14.817 17.79 14.887 17.31 14.897 17.26L16.367 11.1L17.857 17.27C17.867 17.32 17.937 17.8 18.427 17.75H19.257C19.617 17.79 19.787 17.53 19.837 17.29C22.357 9.18 22.187 9.73 22.207 9.65C22.247 9.23 22.007 9.26 21.967 9.27H21.077C20.627 9.22 20.537 9.63 20.517 9.73L18.857 16.14L17.357 9.73C17.287 9.24 16.887 9.26 16.787 9.27H16.017C15.577 9.23 15.467 9.58 15.437 9.73L13.947 16.05L12.347 9.73C12.307 9.53 12.177 9.22 11.787 9.26H10.777ZM6.52303 13.89C7.24303 13.9 7.86503 14.01 8.29503 14.11C8.29503 14.61 8.31303 14.89 8.20303 15.34C8.06303 15.82 7.44403 16.69 5.98403 16.71C5.14403 16.75 4.59403 16.09 4.64403 15.34C4.59403 14.14 5.83403 13.84 6.52403 13.89H6.52303ZM29.041 20.002C28.108 20.015 27.006 20.224 26.17 20.811C25.912 20.99 25.957 21.238 26.244 21.205C27.184 21.092 29.276 20.838 29.65 21.316C30.024 21.794 29.236 23.766 28.887 24.648C28.779 24.911 29.007 25.02 29.248 24.82C30.812 23.51 31.218 20.764 30.898 20.37C30.738 20.172 29.974 19.989 29.041 20.002ZM1.21703 21.002C0.999028 21.032 0.905028 21.308 1.13303 21.527C5.05003 25.201 10.226 27 15.973 27C20.072 27 24.83 25.663 28.115 23.143C28.658 22.723 28.195 22.096 27.639 22.343C23.956 23.969 19.955 24.752 16.314 24.752C10.918 24.752 5.69403 23.625 1.46903 21.066C1.3945 21.0172 1.30581 20.9947 1.21703 21.002Z" fill="var(--fill-0, #535353)"/>
</g>
</svg>
