<svg width="178" height="63" viewBox="0 0 178 63" fill="none" xmlns="http://www.w3.org/2000/svg">
<path d="M49.0013 9.21424C29.5158 -3.20177 3.19436 7.71437 3.0012 29.7141C2.80804 51.7138 26.0014 66.7144 49.0013 52.7144" stroke="url(#paint0_linear_79_1028)" stroke-width="6" stroke-linecap="round"/>
<path d="M19.5013 20.7143C29.0013 10.2145 46.3636 16.0878 48.0007 29.4591C49.5012 41.7146 33.0013 51.7145 20.5014 41.7145" stroke="#0E9A8D" stroke-width="6" stroke-linecap="round"/>
<circle cx="57.5012" cy="46.2148" r="3.5" fill="url(#paint1_linear_79_1028)"/>
<circle cx="57.5012" cy="16.2148" r="3.5" fill="url(#paint2_linear_79_1028)"/>
<path d="M31.5012 24.7148C34.8149 24.7148 37.5012 27.2892 37.5012 30.4648C37.5012 33.6405 34.8149 36.2148 31.5012 36.2148C28.5857 36.2148 26.1564 34.2219 25.6145 31.5801C24.8666 31.3289 23.1908 30.8145 22.0012 30.8145C20.9023 30.8145 19.3884 31.2537 18.5745 31.5186C17.9809 32.5288 16.8278 33.2148 15.5012 33.2148C13.5682 33.2148 12.0012 31.7598 12.0012 29.9648C12.0012 28.1699 13.5682 26.7148 15.5012 26.7148C17.0712 26.7148 18.3994 27.6748 18.843 28.9971C19.6917 29.261 21.0139 29.6152 22.0012 29.6152C23.2741 29.6152 25.1033 29.0251 25.7571 28.7998C26.5021 26.4361 28.7917 24.7148 31.5012 24.7148Z" fill="url(#paint3_linear_79_1028)"/>
<path d="M68.9772 31.0723V28.8483H74.6252V31.0723H68.9772ZM68.9772 22.0963V19.8723H74.6252V22.0963H68.9772ZM68.9772 26.2723V24.0963H74.3052V26.2723H68.9772ZM67.1852 19.8723H69.7772V31.0723H67.1852V19.8723ZM80.9858 25.3603L80.3138 31.0723H77.4658L79.2738 19.3123L84.0418 26.1443L88.8258 19.3123L90.6338 31.0723H87.7858L87.1138 25.3603L84.0418 30.0323L80.9858 25.3603ZM93.6358 19.8723H96.3878V31.0723H93.6358V19.8723ZM102.345 25.4723C102.345 26.1549 102.5 26.7469 102.809 27.2483C103.118 27.7389 103.524 28.1123 104.025 28.3683C104.537 28.6243 105.097 28.7523 105.705 28.7523C106.238 28.7523 106.708 28.6829 107.113 28.5443C107.518 28.4056 107.881 28.2243 108.201 28.0003C108.521 27.7763 108.804 27.5363 109.049 27.2803V30.1923C108.601 30.5443 108.11 30.8216 107.577 31.0243C107.044 31.2269 106.366 31.3283 105.545 31.3283C104.649 31.3283 103.822 31.1896 103.065 30.9123C102.308 30.6349 101.657 30.2349 101.113 29.7123C100.569 29.1896 100.148 28.5709 99.8488 27.8563C99.5502 27.1416 99.4008 26.3469 99.4008 25.4723C99.4008 24.5976 99.5502 23.8029 99.8488 23.0883C100.148 22.3736 100.569 21.7549 101.113 21.2323C101.657 20.7096 102.308 20.3096 103.065 20.0323C103.822 19.7549 104.649 19.6163 105.545 19.6163C106.366 19.6163 107.044 19.7176 107.577 19.9203C108.11 20.1229 108.601 20.4003 109.049 20.7523V23.6643C108.804 23.4083 108.521 23.1683 108.201 22.9443C107.881 22.7096 107.518 22.5283 107.113 22.4003C106.708 22.2616 106.238 22.1923 105.705 22.1923C105.097 22.1923 104.537 22.3203 104.025 22.5763C103.524 22.8323 103.118 23.2056 102.809 23.6963C102.5 24.1869 102.345 24.7789 102.345 25.4723ZM115.34 26.0003H118.14L121.644 31.0723H118.476L115.34 26.0003ZM112.54 19.8723H115.244V31.0723H112.54V19.8723ZM114.236 22.1603V19.8723H116.62C117.58 19.8723 118.38 20.0269 119.02 20.3363C119.66 20.6456 120.145 21.0776 120.476 21.6323C120.806 22.1763 120.972 22.8109 120.972 23.5363C120.972 24.2509 120.806 24.8856 120.476 25.4403C120.145 25.9843 119.66 26.4109 119.02 26.7203C118.38 27.0296 117.58 27.1843 116.62 27.1843H114.236V25.0883H116.428C116.79 25.0883 117.1 25.0349 117.356 24.9283C117.622 24.8109 117.825 24.6456 117.964 24.4323C118.102 24.2083 118.172 23.9416 118.172 23.6323C118.172 23.3229 118.102 23.0616 117.964 22.8483C117.825 22.6243 117.622 22.4536 117.356 22.3363C117.1 22.2189 116.79 22.1603 116.428 22.1603H114.236ZM125.939 28.9123L126.131 26.8483H131.683L131.859 28.9123H125.939ZM128.867 23.9843L127.299 27.6003L127.427 28.1923L126.035 31.0723H122.979L128.867 19.1683L134.771 31.0723H131.699L130.355 28.3043L130.451 27.6163L128.867 23.9843ZM139.017 22.1923V19.8723H144.025V22.1923H139.017ZM139.017 26.5763V24.4003H143.865V26.5763H139.017ZM137.225 19.8723H139.817V31.0723H137.225V19.8723ZM145.744 22.2883V19.8723H154.608V22.2883H151.52V31.0723H148.816V22.2883H145.744Z" fill="white"/>
<path d="M66.0652 38.3443V37.4723H69.9692V38.3443H68.4892V43.0723H67.5372V38.3443H66.0652ZM71.8805 43.0723V42.2403H74.7045V43.0723H71.8805ZM71.8805 38.3043V37.4723H74.7045V38.3043H71.8805ZM71.8805 40.4803V39.6643H74.5445V40.4803H71.8805ZM71.2965 37.4723H72.2245V43.0723H71.2965V37.4723ZM77.2028 40.2723C77.2028 40.6669 77.2908 41.0136 77.4668 41.3123C77.6481 41.6109 77.8828 41.8429 78.1708 42.0083C78.4641 42.1683 78.7814 42.2483 79.1228 42.2483C79.3894 42.2483 79.6294 42.2136 79.8428 42.1443C80.0561 42.0749 80.2481 41.9816 80.4188 41.8643C80.5948 41.7416 80.7468 41.6056 80.8748 41.4563V42.5763C80.6401 42.7683 80.3868 42.9149 80.1148 43.0163C79.8428 43.1176 79.5014 43.1683 79.0908 43.1683C78.6801 43.1683 78.2961 43.0989 77.9388 42.9603C77.5868 42.8216 77.2801 42.6216 77.0188 42.3603C76.7574 42.0989 76.5521 41.7923 76.4028 41.4403C76.2588 41.0829 76.1868 40.6936 76.1868 40.2723C76.1868 39.8509 76.2588 39.4643 76.4028 39.1123C76.5521 38.7549 76.7574 38.4456 77.0188 38.1843C77.2801 37.9229 77.5868 37.7229 77.9388 37.5843C78.2961 37.4456 78.6801 37.3763 79.0908 37.3763C79.5014 37.3763 79.8428 37.4269 80.1148 37.5283C80.3868 37.6296 80.6401 37.7763 80.8748 37.9683V39.0883C80.7468 38.9389 80.5948 38.8056 80.4188 38.6883C80.2481 38.5656 80.0561 38.4696 79.8428 38.4003C79.6294 38.3309 79.3894 38.2963 79.1228 38.2963C78.7814 38.2963 78.4641 38.3789 78.1708 38.5443C77.8828 38.7043 77.6481 38.9336 77.4668 39.2323C77.2908 39.5256 77.2028 39.8723 77.2028 40.2723ZM83.054 40.5043V39.6323H87.046V40.5043H83.054ZM86.438 37.4723H87.382V43.0723H86.438V37.4723ZM82.678 37.4723H83.622V43.0723H82.678V37.4723ZM92.6776 41.2723C92.8003 41.4856 92.9309 41.6749 93.0696 41.8403C93.2136 42.0003 93.3709 42.1256 93.5416 42.2163C93.7123 42.3016 93.9043 42.3443 94.1176 42.3443C94.3736 42.3443 94.5816 42.2749 94.7416 42.1363C94.9016 41.9976 94.9816 41.8189 94.9816 41.6003C94.9816 41.3923 94.9309 41.2269 94.8296 41.1043C94.7283 40.9763 94.5869 40.8696 94.4056 40.7843C94.2296 40.6936 94.0243 40.6056 93.7896 40.5203C93.6509 40.4723 93.4963 40.4083 93.3256 40.3283C93.1549 40.2429 92.9923 40.1389 92.8376 40.0163C92.6829 39.8883 92.5549 39.7336 92.4536 39.5523C92.3523 39.3656 92.3016 39.1416 92.3016 38.8803C92.3016 38.5816 92.3789 38.3203 92.5336 38.0963C92.6883 37.8669 92.8963 37.6909 93.1576 37.5683C93.4243 37.4403 93.7256 37.3763 94.0616 37.3763C94.3923 37.3763 94.6803 37.4349 94.9256 37.5523C95.1709 37.6696 95.3763 37.8189 95.5416 38.0003C95.7123 38.1816 95.8456 38.3709 95.9416 38.5683L95.1736 39.0003C95.1043 38.8616 95.0163 38.7336 94.9096 38.6163C94.8029 38.4936 94.6776 38.3976 94.5336 38.3283C94.3949 38.2536 94.2323 38.2163 94.0456 38.2163C93.7843 38.2163 93.5923 38.2776 93.4696 38.4003C93.3469 38.5176 93.2856 38.6563 93.2856 38.8163C93.2856 38.9603 93.3283 39.0909 93.4136 39.2083C93.5043 39.3203 93.6429 39.4269 93.8296 39.5283C94.0163 39.6296 94.2589 39.7336 94.5576 39.8403C94.7229 39.8989 94.8883 39.9736 95.0536 40.0643C95.2243 40.1549 95.3789 40.2696 95.5176 40.4083C95.6563 40.5416 95.7656 40.6989 95.8456 40.8803C95.9309 41.0616 95.9736 41.2749 95.9736 41.5203C95.9736 41.7816 95.9229 42.0163 95.8216 42.2243C95.7203 42.4323 95.5816 42.6083 95.4056 42.7523C95.2296 42.8909 95.0296 42.9976 94.8056 43.0723C94.5869 43.1523 94.3576 43.1923 94.1176 43.1923C93.7869 43.1923 93.4803 43.1283 93.1976 43.0003C92.9203 42.8669 92.6776 42.6909 92.4696 42.4723C92.2616 42.2536 92.0963 42.0163 91.9736 41.7603L92.6776 41.2723ZM98.2624 40.2723C98.2624 40.6563 98.3424 41.0003 98.5024 41.3043C98.6677 41.6029 98.8944 41.8376 99.1824 42.0083C99.4704 42.1789 99.7984 42.2643 100.166 42.2643C100.54 42.2643 100.868 42.1789 101.15 42.0083C101.438 41.8376 101.662 41.6029 101.822 41.3043C101.988 41.0003 102.07 40.6563 102.07 40.2723C102.07 39.8883 101.99 39.5469 101.83 39.2483C101.67 38.9443 101.446 38.7069 101.158 38.5363C100.876 38.3656 100.545 38.2803 100.166 38.2803C99.7984 38.2803 99.4704 38.3656 99.1824 38.5363C98.8944 38.7069 98.6677 38.9443 98.5024 39.2483C98.3424 39.5469 98.2624 39.8883 98.2624 40.2723ZM97.2624 40.2723C97.2624 39.8509 97.3344 39.4643 97.4784 39.1123C97.6224 38.7603 97.8251 38.4563 98.0864 38.2003C98.3531 37.9389 98.6624 37.7363 99.0144 37.5923C99.3717 37.4483 99.7557 37.3763 100.166 37.3763C100.588 37.3763 100.974 37.4483 101.326 37.5923C101.678 37.7363 101.985 37.9389 102.246 38.2003C102.513 38.4563 102.718 38.7603 102.862 39.1123C103.006 39.4643 103.078 39.8509 103.078 40.2723C103.078 40.6883 103.006 41.0749 102.862 41.4323C102.718 41.7896 102.516 42.0989 102.254 42.3603C101.993 42.6216 101.684 42.8269 101.326 42.9763C100.974 43.1203 100.588 43.1923 100.166 43.1923C99.7504 43.1923 99.3637 43.1203 99.0064 42.9763C98.6491 42.8269 98.3397 42.6216 98.0784 42.3603C97.8224 42.0989 97.6224 41.7896 97.4784 41.4323C97.3344 41.0749 97.2624 40.6883 97.2624 40.2723ZM104.636 37.4723H105.58V42.2243H107.804V43.0723H104.636V37.4723ZM109.088 37.4723H110.032V41.1923C110.032 41.5389 110.123 41.8189 110.304 42.0323C110.491 42.2403 110.765 42.3443 111.128 42.3443C111.485 42.3443 111.757 42.2403 111.944 42.0323C112.131 41.8189 112.224 41.5389 112.224 41.1923V37.4723H113.168V41.2323C113.168 41.5416 113.117 41.8189 113.016 42.0643C112.92 42.3043 112.781 42.5096 112.6 42.6803C112.419 42.8509 112.203 42.9816 111.952 43.0723C111.701 43.1629 111.427 43.2083 111.128 43.2083C110.829 43.2083 110.555 43.1629 110.304 43.0723C110.053 42.9816 109.835 42.8509 109.648 42.6803C109.467 42.5096 109.328 42.3043 109.232 42.0643C109.136 41.8189 109.088 41.5416 109.088 41.2323V37.4723ZM114.458 38.3443V37.4723H118.362V38.3443H116.882V43.0723H115.93V38.3443H114.458ZM119.689 37.4723H120.641V43.0723H119.689V37.4723ZM123.212 40.2723C123.212 40.6563 123.292 41.0003 123.452 41.3043C123.618 41.6029 123.844 41.8376 124.132 42.0083C124.42 42.1789 124.748 42.2643 125.116 42.2643C125.49 42.2643 125.818 42.1789 126.1 42.0083C126.388 41.8376 126.612 41.6029 126.772 41.3043C126.938 41.0003 127.02 40.6563 127.02 40.2723C127.02 39.8883 126.94 39.5469 126.78 39.2483C126.62 38.9443 126.396 38.7069 126.108 38.5363C125.826 38.3656 125.495 38.2803 125.116 38.2803C124.748 38.2803 124.42 38.3656 124.132 38.5363C123.844 38.7069 123.618 38.9443 123.452 39.2483C123.292 39.5469 123.212 39.8883 123.212 40.2723ZM122.212 40.2723C122.212 39.8509 122.284 39.4643 122.428 39.1123C122.572 38.7603 122.775 38.4563 123.036 38.2003C123.303 37.9389 123.612 37.7363 123.964 37.5923C124.322 37.4483 124.706 37.3763 125.116 37.3763C125.538 37.3763 125.924 37.4483 126.276 37.5923C126.628 37.7363 126.935 37.9389 127.196 38.2003C127.463 38.4563 127.668 38.7603 127.812 39.1123C127.956 39.4643 128.028 39.8509 128.028 40.2723C128.028 40.6883 127.956 41.0749 127.812 41.4323C127.668 41.7896 127.466 42.0989 127.204 42.3603C126.943 42.6216 126.634 42.8269 126.276 42.9763C125.924 43.1203 125.538 43.1923 125.116 43.1923C124.7 43.1923 124.314 43.1203 123.956 42.9763C123.599 42.8269 123.29 42.6216 123.028 42.3603C122.772 42.0989 122.572 41.7896 122.428 41.4323C122.284 41.0749 122.212 40.6883 122.212 40.2723ZM133.674 37.4723H134.602V43.3523L130.514 39.3123V43.0723H129.586V37.1923L133.674 41.2323V37.4723ZM136.852 41.2723C136.975 41.4856 137.106 41.6749 137.244 41.8403C137.388 42.0003 137.546 42.1256 137.716 42.2163C137.887 42.3016 138.079 42.3443 138.292 42.3443C138.548 42.3443 138.756 42.2749 138.916 42.1363C139.076 41.9976 139.156 41.8189 139.156 41.6003C139.156 41.3923 139.106 41.2269 139.004 41.1043C138.903 40.9763 138.762 40.8696 138.58 40.7843C138.404 40.6936 138.199 40.6056 137.964 40.5203C137.826 40.4723 137.671 40.4083 137.5 40.3283C137.33 40.2429 137.167 40.1389 137.012 40.0163C136.858 39.8883 136.73 39.7336 136.628 39.5523C136.527 39.3656 136.476 39.1416 136.476 38.8803C136.476 38.5816 136.554 38.3203 136.708 38.0963C136.863 37.8669 137.071 37.6909 137.332 37.5683C137.599 37.4403 137.9 37.3763 138.236 37.3763C138.567 37.3763 138.855 37.4349 139.1 37.5523C139.346 37.6696 139.551 37.8189 139.716 38.0003C139.887 38.1816 140.02 38.3709 140.116 38.5683L139.348 39.0003C139.279 38.8616 139.191 38.7336 139.084 38.6163C138.978 38.4936 138.852 38.3976 138.708 38.3283C138.57 38.2536 138.407 38.2163 138.22 38.2163C137.959 38.2163 137.767 38.2776 137.644 38.4003C137.522 38.5176 137.46 38.6563 137.46 38.8163C137.46 38.9603 137.503 39.0909 137.588 39.2083C137.679 39.3203 137.818 39.4269 138.004 39.5283C138.191 39.6296 138.434 39.7336 138.732 39.8403C138.898 39.8989 139.063 39.9736 139.228 40.0643C139.399 40.1549 139.554 40.2696 139.692 40.4083C139.831 40.5416 139.94 40.6989 140.02 40.8803C140.106 41.0616 140.148 41.2749 140.148 41.5203C140.148 41.7816 140.098 42.0163 139.996 42.2243C139.895 42.4323 139.756 42.6083 139.58 42.7523C139.404 42.8909 139.204 42.9976 138.98 43.0723C138.762 43.1523 138.532 43.1923 138.292 43.1923C137.962 43.1923 137.655 43.1283 137.372 43.0003C137.095 42.8669 136.852 42.6909 136.644 42.4723C136.436 42.2536 136.271 42.0163 136.148 41.7603L136.852 41.2723ZM144.796 37.4723H145.74V42.2243H147.964V43.0723H144.796V37.4723ZM149.287 37.4723H150.239V43.0723H149.287V37.4723ZM153.17 39.6643L152.786 43.0723H151.81L152.578 37.1923L154.874 40.9923L157.178 37.1923L157.946 43.0723H156.97L156.578 39.6643L154.874 42.5523L153.17 39.6643ZM159.505 37.4723H160.457V43.0723H159.505V37.4723ZM161.788 38.3443V37.4723H165.692V38.3443H164.212V43.0723H163.26V38.3443H161.788ZM167.603 43.0723V42.2403H170.427V43.0723H167.603ZM167.603 38.3043V37.4723H170.427V38.3043H167.603ZM167.603 40.4803V39.6643H170.267V40.4803H167.603ZM167.019 37.4723H167.947V43.0723H167.019V37.4723ZM172.229 37.4723H173.189V43.0723H172.229V37.4723ZM174.037 43.0723H172.813V42.1843H174.013C174.291 42.1843 174.547 42.1443 174.781 42.0643C175.016 41.9843 175.219 41.8643 175.389 41.7043C175.565 41.5443 175.701 41.3443 175.797 41.1043C175.899 40.8643 175.949 40.5869 175.949 40.2723C175.949 39.9576 175.899 39.6803 175.797 39.4403C175.701 39.2003 175.565 39.0003 175.389 38.8403C175.219 38.6803 175.016 38.5603 174.781 38.4803C174.547 38.4003 174.291 38.3603 174.013 38.3603H172.813V37.4723H174.037C174.608 37.4723 175.109 37.5896 175.541 37.8243C175.973 38.0536 176.309 38.3789 176.549 38.8003C176.795 39.2163 176.917 39.7069 176.917 40.2723C176.917 40.8376 176.795 41.3309 176.549 41.7523C176.309 42.1683 175.973 42.4936 175.541 42.7283C175.109 42.9576 174.608 43.0723 174.037 43.0723Z" fill="white"/>
<defs>
<linearGradient id="paint0_linear_79_1028" x1="50.5012" y1="6.71436" x2="32.5012" y2="61.2144" gradientUnits="userSpaceOnUse">
<stop stop-color="#0095CF"/>
<stop offset="1" stop-color="#0E9A8D"/>
</linearGradient>
<linearGradient id="paint1_linear_79_1028" x1="54.1385" y1="46.0627" x2="61.0012" y2="46.0627" gradientUnits="userSpaceOnUse">
<stop stop-color="#0E9A8D"/>
<stop offset="1" stop-color="#4B35B2"/>
</linearGradient>
<linearGradient id="paint2_linear_79_1028" x1="56" y1="20.0005" x2="61.0012" y2="16.0627" gradientUnits="userSpaceOnUse">
<stop stop-color="#0E9A8D"/>
<stop offset="1" stop-color="#4B35B2"/>
</linearGradient>
<linearGradient id="paint3_linear_79_1028" x1="12.5012" y1="30.2148" x2="37.5012" y2="30.2148" gradientUnits="userSpaceOnUse">
<stop stop-color="#0E9A8D"/>
<stop offset="1" stop-color="#4B35B2"/>
</linearGradient>
</defs>
</svg>
