<svg width="1027" height="378" viewBox="0 0 1027 378" fill="none" xmlns="http://www.w3.org/2000/svg">
<path d="M189 133.003V245.996C188.833 245.998 188.667 246 188.5 246C157.296 246 132 220.704 132 189.5C132 158.296 157.296 133 188.5 133C188.667 133 188.834 133.001 189 133.003Z" fill="#39976C"/>
<path d="M267.606 187.211V171.664H307.339V187.211H267.606ZM267.606 124.467V108.921H307.339V124.467H267.606ZM267.606 153.658V138.447H305.088V153.658H267.606ZM255 108.921H273.234V187.211H255V108.921ZM352.084 147.283L347.357 187.211H327.322L340.041 105.007L373.582 152.763L407.237 105.007L419.956 187.211H399.921L395.193 147.283L373.582 179.941L352.084 147.283ZM441.074 108.921H460.434V187.211H441.074V108.921ZM502.341 148.066C502.341 152.837 503.432 156.975 505.605 160.48C507.779 163.91 510.635 166.52 514.16 168.309C517.762 170.099 521.701 170.993 525.978 170.993C529.728 170.993 533.034 170.508 535.883 169.539C538.732 168.57 541.286 167.303 543.537 165.737C545.788 164.171 547.779 162.493 549.503 160.704V181.059C546.351 183.52 542.897 185.458 539.147 186.875C535.398 188.291 530.628 189 524.853 189C518.549 189 512.732 188.03 507.406 186.092C502.081 184.153 497.501 181.357 493.675 177.704C489.848 174.05 486.886 169.725 484.781 164.73C482.681 159.734 481.63 154.179 481.63 148.066C481.63 141.952 482.681 136.396 484.781 131.401C486.886 126.405 489.848 122.081 493.675 118.428C497.501 114.774 502.081 111.978 507.406 110.039C512.732 108.1 518.549 107.132 524.853 107.132C530.628 107.132 535.398 107.84 539.147 109.257C542.897 110.673 546.351 112.612 549.503 115.072V135.428C547.779 133.638 545.788 131.961 543.537 130.395C541.286 128.754 538.732 127.487 535.883 126.592C533.034 125.623 529.728 125.138 525.978 125.138C521.701 125.138 517.762 126.033 514.16 127.822C510.635 129.612 507.779 132.221 505.605 135.651C503.432 139.081 502.341 143.219 502.341 148.066ZM593.758 151.757H613.456L638.106 187.211H615.819L593.758 151.757ZM574.061 108.921H593.083V187.211H574.061V108.921ZM585.992 124.914V108.921H602.763C609.516 108.921 615.144 110.002 619.646 112.164C624.149 114.327 627.56 117.346 629.889 121.224C632.21 125.026 633.378 129.462 633.378 134.533C633.378 139.528 632.21 143.965 629.889 147.842C627.56 151.645 624.149 154.627 619.646 156.789C615.144 158.952 609.516 160.033 602.763 160.033H585.992V145.382H601.412C603.959 145.382 606.14 145.008 607.94 144.263C609.812 143.443 611.24 142.287 612.218 140.796C613.188 139.23 613.681 137.366 613.681 135.204C613.681 133.041 613.188 131.215 612.218 129.724C611.24 128.158 609.812 126.965 607.94 126.145C606.14 125.324 603.959 124.914 601.412 124.914H585.992ZM668.32 172.112L669.671 157.684H708.728L709.966 172.112H668.32ZM688.918 137.664L677.887 162.941L678.788 167.079L668.995 187.211H647.497L688.918 104L730.451 187.211H708.84L699.385 167.862L700.061 163.053L688.918 137.664ZM760.321 125.138V108.921H795.551V125.138H760.321ZM760.321 155.783V140.572H794.425V155.783H760.321ZM747.714 108.921H765.949V187.211H747.714V108.921ZM807.644 125.809V108.921H870V125.809H848.277V187.211H829.255V125.809H807.644Z" fill="white"/>
<path d="M247 239.042V232.955H274.47V239.042H264.056V272.045H257.358V239.042H247ZM287.919 272.045V266.238H307.79V272.045H287.919ZM287.919 238.762V232.955H307.79V238.762H287.919ZM287.919 253.952V248.256H306.664V253.952H287.919ZM283.81 232.955H290.339V272.045H283.81V232.955ZM325.369 252.5C325.369 255.255 325.988 257.675 327.226 259.76C328.502 261.844 330.154 263.464 332.18 264.618C334.244 265.735 336.477 266.294 338.879 266.294C340.755 266.294 342.443 266.051 343.945 265.568C345.446 265.083 346.797 264.432 347.998 263.613C349.236 262.756 350.306 261.807 351.207 260.765V268.583C349.555 269.923 347.773 270.947 345.859 271.655C343.945 272.362 341.543 272.716 338.654 272.716C335.764 272.716 333.062 272.231 330.548 271.264C328.071 270.295 325.913 268.899 324.074 267.075C322.235 265.251 320.79 263.11 319.74 260.653C318.726 258.158 318.22 255.441 318.22 252.5C318.22 249.558 318.726 246.86 319.74 244.403C320.79 241.908 322.235 239.749 324.074 237.925C325.913 236.1 328.071 234.704 330.548 233.736C333.062 232.768 335.764 232.284 338.654 232.284C341.543 232.284 343.945 232.638 345.859 233.345C347.773 234.053 349.555 235.077 351.207 236.417V244.235C350.306 243.192 349.236 242.262 347.998 241.443C346.797 240.586 345.446 239.916 343.945 239.432C342.443 238.948 340.755 238.706 338.879 238.706C336.477 238.706 334.244 239.283 332.18 240.438C330.154 241.555 328.502 243.155 327.226 245.24C325.988 247.288 325.369 249.708 325.369 252.5ZM366.54 254.119V248.032H394.63V254.119H366.54ZM390.352 232.955H396.994V272.045H390.352V232.955ZM363.895 232.955H370.537V272.045H363.895V232.955ZM434.256 259.481C435.119 260.969 436.038 262.291 437.014 263.445C438.028 264.562 439.134 265.437 440.336 266.07C441.537 266.666 442.888 266.964 444.388 266.964C446.19 266.964 447.653 266.479 448.779 265.512C449.905 264.543 450.468 263.296 450.468 261.77C450.468 260.318 450.111 259.164 449.398 258.308C448.686 257.414 447.691 256.669 446.415 256.074C445.177 255.441 443.732 254.827 442.081 254.231C441.105 253.896 440.017 253.449 438.816 252.891C437.615 252.295 436.47 251.569 435.382 250.713C434.293 249.819 433.393 248.74 432.68 247.474C431.967 246.171 431.61 244.607 431.61 242.783C431.61 240.698 432.154 238.874 433.243 237.31C434.331 235.709 435.795 234.48 437.634 233.625C439.51 232.731 441.63 232.284 443.994 232.284C446.321 232.284 448.348 232.693 450.074 233.513C451.8 234.332 453.245 235.374 454.408 236.64C455.61 237.906 456.547 239.227 457.223 240.605L451.819 243.621C451.331 242.653 450.712 241.759 449.961 240.94C449.211 240.084 448.329 239.414 447.316 238.93C446.34 238.408 445.196 238.148 443.882 238.148C442.043 238.148 440.692 238.576 439.829 239.432C438.966 240.251 438.534 241.219 438.534 242.336C438.534 243.342 438.835 244.253 439.435 245.073C440.073 245.855 441.048 246.599 442.362 247.307C443.676 248.014 445.383 248.74 447.485 249.484C448.648 249.893 449.811 250.415 450.975 251.048C452.176 251.68 453.264 252.481 454.239 253.449C455.215 254.38 455.984 255.478 456.547 256.744C457.148 258.01 457.448 259.499 457.448 261.212C457.448 263.036 457.091 264.674 456.379 266.126C455.666 267.578 454.69 268.807 453.451 269.812C452.213 270.779 450.806 271.524 449.23 272.045C447.691 272.604 446.077 272.883 444.388 272.883C442.062 272.883 439.904 272.436 437.915 271.543C435.964 270.612 434.256 269.383 432.792 267.857C431.329 266.331 430.166 264.674 429.302 262.887L434.256 259.481ZM473.553 252.5C473.553 255.181 474.116 257.582 475.242 259.704C476.405 261.788 478 263.427 480.027 264.618C482.053 265.809 484.361 266.405 486.948 266.405C489.579 266.405 491.887 265.809 493.871 264.618C495.898 263.427 497.474 261.788 498.6 259.704C499.768 257.582 500.345 255.181 500.345 252.5C500.345 249.819 499.782 247.436 498.656 245.352C497.53 243.23 495.954 241.573 493.928 240.382C491.943 239.19 489.614 238.595 486.948 238.595C484.361 238.595 482.053 239.19 480.027 240.382C478 241.573 476.405 243.23 475.242 245.352C474.116 247.436 473.553 249.819 473.553 252.5ZM466.517 252.5C466.517 249.558 467.023 246.86 468.037 244.403C469.05 241.945 470.476 239.823 472.315 238.036C474.191 236.212 476.368 234.797 478.844 233.792C481.359 232.787 484.061 232.284 486.948 232.284C489.917 232.284 492.633 232.787 495.11 233.792C497.587 234.797 499.747 236.212 501.583 238.036C503.462 239.823 504.905 241.945 505.918 244.403C506.931 246.86 507.438 249.558 507.438 252.5C507.438 255.404 506.931 258.103 505.918 260.597C504.905 263.092 503.483 265.251 501.64 267.075C499.803 268.899 497.629 270.332 495.11 271.375C492.633 272.381 489.917 272.883 486.948 272.883C484.023 272.883 481.302 272.381 478.788 271.375C476.274 270.332 474.097 268.899 472.258 267.075C470.457 265.251 469.05 263.092 468.037 260.597C467.023 258.103 466.517 255.404 466.517 252.5ZM518.4 232.955H525.043V266.126H540.692V272.045H518.4V232.955ZM549.727 232.955H556.369V258.922C556.369 261.342 557.009 263.296 558.283 264.786C559.599 266.238 561.527 266.964 564.081 266.964C566.593 266.964 568.507 266.238 569.823 264.786C571.138 263.296 571.793 261.342 571.793 258.922V232.955H578.435V259.201C578.435 261.36 578.076 263.296 577.366 265.009C576.69 266.684 575.712 268.118 574.438 269.309C573.165 270.5 571.645 271.412 569.879 272.045C568.113 272.678 566.185 272.995 564.081 272.995C561.977 272.995 560.049 272.678 558.283 272.045C556.517 271.412 554.983 270.5 553.667 269.309C552.393 268.118 551.415 266.684 550.74 265.009C550.064 263.296 549.727 261.36 549.727 259.201V232.955ZM587.512 239.042V232.955H614.982V239.042H604.568V272.045H597.87V239.042H587.512ZM624.32 232.955H631.018V272.045H624.32V232.955ZM649.109 252.5C649.109 255.181 649.672 257.582 650.798 259.704C651.966 261.788 653.556 263.427 655.582 264.618C657.609 265.809 659.917 266.405 662.506 266.405C665.138 266.405 667.446 265.809 669.43 264.618C671.457 263.427 673.033 261.788 674.159 259.704C675.327 257.582 675.904 255.181 675.904 252.5C675.904 249.819 675.341 247.436 674.215 245.352C673.089 243.23 671.513 241.573 669.486 240.382C667.502 239.19 665.173 238.595 662.506 238.595C659.917 238.595 657.609 239.19 655.582 240.382C653.556 241.573 651.966 243.23 650.798 245.352C649.672 247.436 649.109 249.819 649.109 252.5ZM642.073 252.5C642.073 249.558 642.579 246.86 643.592 244.403C644.606 241.945 646.034 239.823 647.871 238.036C649.749 236.212 651.924 234.797 654.4 233.792C656.919 232.787 659.621 232.284 662.506 232.284C665.476 232.284 668.192 232.787 670.669 233.792C673.145 234.797 675.306 236.212 677.142 238.036C679.021 239.823 680.463 241.945 681.476 244.403C682.49 246.86 682.996 249.558 682.996 252.5C682.996 255.404 682.49 258.103 681.476 260.597C680.463 263.092 679.042 265.251 677.198 267.075C675.362 268.899 673.188 270.332 670.669 271.375C668.192 272.381 665.476 272.883 662.506 272.883C659.579 272.883 656.863 272.381 654.344 271.375C651.832 270.332 649.658 268.899 647.814 267.075C646.013 265.251 644.606 263.092 643.592 260.597C642.579 258.103 642.073 255.404 642.073 252.5ZM722.724 232.955H729.254V274L700.489 245.799V272.045H693.959V231L722.724 259.201V232.955ZM745.086 259.481C745.951 260.969 746.873 262.291 747.844 263.445C748.857 264.562 749.969 265.437 751.165 266.07C752.368 266.666 753.719 266.964 755.218 266.964C757.02 266.964 758.483 266.479 759.609 265.512C760.735 264.543 761.298 263.296 761.298 261.77C761.298 260.318 760.946 259.164 760.228 258.308C759.517 257.414 758.525 256.669 757.245 256.074C756.006 255.441 754.564 254.827 752.91 254.231C751.939 253.896 750.849 253.449 749.645 252.891C748.449 252.295 747.302 251.569 746.212 250.713C745.128 249.819 744.227 248.74 743.51 247.474C742.799 246.171 742.44 244.607 742.44 242.783C742.44 240.698 742.989 238.874 744.072 237.31C745.163 235.709 746.627 234.48 748.463 233.625C750.342 232.731 752.46 232.284 754.824 232.284C757.153 232.284 759.18 232.693 760.904 233.513C762.635 234.332 764.077 235.374 765.238 236.64C766.441 237.906 767.377 239.227 768.053 240.605L762.649 243.621C762.163 242.653 761.544 241.759 760.791 240.94C760.045 240.084 759.159 239.414 758.145 238.93C757.174 238.408 756.027 238.148 754.712 238.148C752.875 238.148 751.524 238.576 750.659 239.432C749.8 240.251 749.364 241.219 749.364 242.336C749.364 243.342 749.666 244.253 750.265 245.073C750.905 245.855 751.883 246.599 753.192 247.307C754.507 248.014 756.217 248.74 758.314 249.484C759.482 249.893 760.643 250.415 761.804 251.048C763.007 251.68 764.098 252.481 765.069 253.449C766.047 254.38 766.814 255.478 767.377 256.744C767.982 258.01 768.278 259.499 768.278 261.212C768.278 263.036 767.926 264.674 767.208 266.126C766.498 267.578 765.52 268.807 764.281 269.812C763.043 270.779 761.635 271.524 760.059 272.045C758.525 272.604 756.907 272.883 755.218 272.883C752.896 272.883 750.736 272.436 748.745 271.543C746.796 270.612 745.086 269.383 743.622 267.857C742.159 266.331 740.998 264.674 740.132 262.887L745.086 259.481ZM800.983 232.955H807.625V266.126H823.274V272.045H800.983V232.955ZM832.584 232.955H839.282V272.045H832.584V232.955ZM859.906 248.256L857.204 272.045H850.337L855.741 231L871.896 257.526L888.108 231L893.512 272.045H886.644L883.886 248.256L871.896 268.416L859.906 248.256ZM904.482 232.955H911.18V272.045H904.482V232.955ZM920.546 239.042V232.955H948.016V239.042H937.602V272.045H930.904V239.042H920.546ZM961.463 272.045V266.238H981.334V272.045H961.463ZM961.463 238.762V232.955H981.334V238.762H961.463ZM961.463 253.952V248.256H980.208V253.952H961.463ZM957.353 232.955H963.883V272.045H957.353V232.955ZM994.013 232.955H1000.77V272.045H994.013V232.955ZM1006.74 272.045H998.123V265.847H1006.57C1008.52 265.847 1010.32 265.568 1011.97 265.009C1013.62 264.451 1015.05 263.613 1016.25 262.496C1017.49 261.379 1018.44 259.983 1019.12 258.308C1019.84 256.632 1020.19 254.696 1020.19 252.5C1020.19 250.303 1019.84 248.368 1019.12 246.692C1018.44 245.017 1017.49 243.621 1016.25 242.504C1015.05 241.387 1013.62 240.549 1011.97 239.991C1010.32 239.432 1008.52 239.153 1006.57 239.153H998.123V232.955H1006.74C1010.75 232.955 1014.28 233.773 1017.32 235.412C1020.36 237.012 1022.72 239.283 1024.41 242.225C1026.14 245.129 1027 248.553 1027 252.5C1027 256.446 1026.14 259.89 1024.41 262.831C1022.72 265.735 1020.36 268.006 1017.32 269.644C1014.28 271.245 1010.75 272.045 1006.74 272.045Z" fill="white"/>
<path d="M189 0C209.155 0 228.572 3.1573 246.786 9H228C206.461 9 189 26.4609 189 48V70.0029C188.833 70.0022 188.667 70 188.5 70C122.502 70 69 123.502 69 189.5C69 255.498 122.502 309 188.5 309C188.667 309 188.833 308.997 189 308.996V330C189 351.539 206.461 369 228 369H246.786C228.572 374.843 209.155 378 189 378C84.6182 378 0 293.382 0 189C0 84.6182 84.6182 0 189 0Z" fill="#8BE4BB"/>
</svg>
